<svg xmlns = "http://www.w3.org/2000/svg" width = "1000" height = "1000">
<g>
<polygon points = "926.293, 150.961 920.048, 176.224 912.557, 179.242 800.609, 128.374 813.456, 0.000 907.839, 0.000 "
fill = "none" stroke = "black"/>
</g>
<g>
<polygon points = "896.254, 504.086 1000.000, 492.190 1000.000, 574.404 "
fill = "none" stroke = "black"/>
</g>
<g>
<polygon points = "74.211, 820.959 112.275, 844.619 120.078, 857.079 128.596, 1000.000 0.000, 1000.000 0.000, 853.311 "
fill = "none" stroke = "black"/>
</g>
<g>
<polygon points = "727.210, 710.795 743.584, 739.204 696.541, 742.150 641.619, 724.720 "
fill = "none" stroke = "black"/>
</g>
<g>
<polygon points = "507.365, 445.268 494.368, 424.474 572.787, 326.865 642.636, 322.741 716.720, 429.667 688.435, 482.463 "
fill = "none" stroke = "black"/>
</g>
<g>
<polygon points = "133.019, 752.126 176.512, 751.464 222.338, 875.121 120.078, 857.079 112.275, 844.619 "
fill = "none" stroke = "black"/>
</g>
<g>
<polygon points = "369.791, 102.110 371.338, 75.610 420.115, 0.000 469.098, 0.000 472.485, 111.550 459.067, 145.313 453.125, 153.056 405.658, 154.551 "
fill = "none" stroke = "black"/>
</g>
<g>
<polygon points = "354.858, 363.476 321.737, 339.523 297.635, 309.940 405.658, 154.551 453.125, 153.056 492.220, 192.377 508.911, 232.119 507.227, 256.910 "
fill = "none" stroke = "black"/>
</g>
<g>
<polygon points = "841.405, 272.986 812.610, 273.312 705.888, 227.721 701.678, 212.684 764.998, 135.915 800.609, 128.374 912.557, 179.242 "
fill = "none" stroke = "black"/>
</g>
<g>
<polygon points = "120.078, 857.079 222.338, 875.121 225.031, 879.619 191.857, 1000.000 128.596, 1000.000 "
fill = "none" stroke = "black"/>
</g>
<g>
<polygon points = "528.911, 681.169 545.481, 651.620 592.791, 619.895 557.699, 725.561 550.641, 720.725 528.474, 685.893 "
fill = "none" stroke = "black"/>
</g>
<g>
<polygon points = "700.805, 602.870 828.818, 544.504 728.235, 690.774 "
fill = "none" stroke = "black"/>
</g>
<g>
<polygon points = "775.055, 431.433 716.720, 429.667 642.636, 322.741 705.888, 227.721 812.610, 273.312 837.947, 296.784 852.626, 352.182 "
fill = "none" stroke = "black"/>
</g>
<g>
<polygon points = "705.507, 3.095 650.994, 17.764 670.294, 0.000 705.138, 0.000 "
fill = "none" stroke = "black"/>
</g>
<g>
<polygon points = "689.101, 199.853 722.632, 86.307 764.998, 135.915 701.678, 212.684 "
fill = "none" stroke = "black"/>
</g>
<g>
<polygon points = "896.832, 379.911 852.626, 352.182 837.947, 296.784 841.405, 272.986 912.557, 179.242 920.048, 176.224 1000.000, 201.169 1000.000, 357.634 "
fill = "none" stroke = "black"/>
</g>
<g>
<polygon points = "949.978, 798.974 885.517, 794.661 879.335, 791.162 889.948, 636.357 1000.000, 643.582 1000.000, 794.188 "
fill = "none" stroke = "black"/>
</g>
<g>
<polygon points = ""
fill = "none" stroke = "black"/>
</g>
<g>
<polygon points = "584.303, 817.054 558.797, 726.430 641.619, 724.720 696.541, 742.150 "
fill = "none" stroke = "black"/>
</g>
<g>
<polygon points = "169.184, 0.000 164.583, 31.655 149.457, 70.144 61.595, 101.174 0.000, 89.669 0.000, 0.000 "
fill = "none" stroke = "black"/>
</g>
<g>
<polygon points = "829.578, 530.523 735.521, 514.206 686.447, 504.793 688.435, 482.463 716.720, 429.667 775.055, 431.433 "
fill = "none" stroke = "black"/>
</g>
<g>
<polygon points = "591.250, 892.107 490.288, 858.731 550.641, 720.725 557.699, 725.561 558.797, 726.430 584.303, 817.054 "
fill = "none" stroke = "black"/>
</g>
<g>
<polygon points = ""
fill = "none" stroke = "black"/>
</g>
<g>
<polygon points = "885.517, 794.661 949.978, 798.974 895.617, 884.360 "
fill = "none" stroke = "black"/>
</g>
<g>
<polygon points = "906.835, 421.873 896.832, 379.911 1000.000, 357.634 1000.000, 402.477 "
fill = "none" stroke = "black"/>
</g>
<g>
<polygon points = "200.053, 186.129 200.943, 204.044 111.062, 246.760 48.619, 186.339 61.595, 101.174 149.457, 70.144 "
fill = "none" stroke = "black"/>
</g>
<g>
<polygon points = "424.266, 998.448 465.140, 897.042 616.520, 930.534 647.560, 964.501 659.515, 984.903 661.546, 1000.000 424.056, 1000.000 "
fill = "none" stroke = "black"/>
</g>
<g>
<polygon points = "61.595, 101.174 48.619, 186.339 0.000, 197.055 0.000, 89.669 "
fill = "none" stroke = "black"/>
</g>
<g>
<polygon points = "382.839, 976.737 424.266, 998.448 424.056, 1000.000 384.684, 1000.000 "
fill = "none" stroke = "black"/>
</g>
<g>
<polygon points = "181.726, 747.274 212.083, 688.988 244.123, 667.090 306.017, 692.663 306.665, 693.974 "
fill = "none" stroke = "black"/>
</g>
<g>
<polygon points = ""
fill = "none" stroke = "black"/>
</g>
<g>
<polygon points = "551.337, 279.237 553.995, 288.277 507.227, 256.910 508.911, 232.119 "
fill = "none" stroke = "black"/>
</g>
<g>
<polygon points = "209.427, 238.864 120.422, 270.160 111.062, 246.760 200.943, 204.044 "
fill = "none" stroke = "black"/>
</g>
<g>
<polygon points = "118.400, 751.694 74.211, 820.959 0.000, 853.311 0.000, 732.797 "
fill = "none" stroke = "black"/>
</g>
<g>
<polygon points = "191.826, 597.857 188.755, 601.591 169.820, 590.738 172.001, 585.328 "
fill = "none" stroke = "black"/>
</g>
<g>
<polygon points = "48.619, 186.339 111.062, 246.760 120.422, 270.160 72.590, 343.474 0.000, 336.939 0.000, 197.055 "
fill = "none" stroke = "black"/>
</g>
<g>
<polygon points = "337.846, 106.027 164.583, 31.655 169.184, 0.000 360.720, 0.000 371.338, 75.610 369.791, 102.110 "
fill = "none" stroke = "black"/>
</g>
<g>
<polygon points = ""
fill = "none" stroke = "black"/>
</g>
<g>
<polygon points = "889.948, 636.357 847.815, 544.221 855.831, 529.755 888.283, 503.915 896.254, 504.086 1000.000, 574.404 1000.000, 643.582 "
fill = "none" stroke = "black"/>
</g>
<g>
<polygon points = "72.590, 343.474 144.287, 422.385 27.473, 525.375 0.000, 536.053 0.000, 336.939 "
fill = "none" stroke = "black"/>
</g>
<g>
<polygon points = "634.333, 30.307 597.169, 118.096 490.919, 125.894 472.485, 111.550 469.098, 0.000 635.103, 0.000 "
fill = "none" stroke = "black"/>
</g>
<g>
<polygon points = "414.488, 414.159 389.558, 399.691 354.858, 363.476 507.227, 256.910 553.995, 288.277 572.787, 326.865 494.368, 424.474 "
fill = "none" stroke = "black"/>
</g>
<g>
<polygon points = "27.473, 525.375 170.130, 580.849 172.001, 585.328 169.820, 590.738 118.253, 644.108 0.000, 653.751 0.000, 536.053 "
fill = "none" stroke = "black"/>
</g>
<g>
<polygon points = "386.381, 545.994 306.997, 576.177 284.415, 552.859 271.624, 507.568 389.558, 399.691 414.488, 414.159 "
fill = "none" stroke = "black"/>
</g>
<g>
<polygon points = "893.360, 916.081 895.617, 884.360 949.978, 798.974 1000.000, 794.188 1000.000, 1000.000 949.076, 1000.000 "
fill = "none" stroke = "black"/>
</g>
<g>
<polygon points = "855.831, 529.755 847.815, 544.221 844.136, 538.127 "
fill = "none" stroke = "black"/>
</g>
<g>
<polygon points = ""
fill = "none" stroke = "black"/>
</g>
<g>
<polygon points = "837.542, 536.981 828.818, 544.504 700.805, 602.870 661.122, 569.649 669.893, 524.762 679.489, 513.647 735.521, 514.206 829.578, 530.523 "
fill = "none" stroke = "black"/>
</g>
<g>
<polygon points = "360.720, 0.000 420.115, 0.000 371.338, 75.610 "
fill = "none" stroke = "black"/>
</g>
<g>
<polygon points = "282.658, 889.229 351.418, 864.184 382.839, 976.737 384.684, 1000.000 203.393, 1000.000 "
fill = "none" stroke = "black"/>
</g>
<g>
<polygon points = "616.520, 930.534 465.140, 897.042 458.049, 870.510 490.288, 858.731 591.250, 892.107 "
fill = "none" stroke = "black"/>
</g>
<g>
<polygon points = "425.409, 568.941 386.381, 545.994 414.488, 414.159 494.368, 424.474 507.365, 445.268 516.238, 471.816 "
fill = "none" stroke = "black"/>
</g>
<g>
<polygon points = "188.755, 601.591 191.826, 597.857 202.584, 601.235 244.123, 667.090 212.083, 688.988 "
fill = "none" stroke = "black"/>
</g>
<g>
<polygon points = "764.998, 135.915 722.632, 86.307 705.507, 3.095 705.138, 0.000 813.456, 0.000 800.609, 128.374 "
fill = "none" stroke = "black"/>
</g>
<g>
<polygon points = ""
fill = "none" stroke = "black"/>
</g>
<g>
<polygon points = "170.130, 580.849 177.865, 463.304 253.770, 487.634 271.624, 507.568 284.415, 552.859 202.584, 601.235 191.826, 597.857 172.001, 585.328 "
fill = "none" stroke = "black"/>
</g>
<g>
<polygon points = "118.400, 751.694 123.232, 750.812 133.019, 752.126 112.275, 844.619 74.211, 820.959 "
fill = "none" stroke = "black"/>
</g>
<g>
<polygon points = "490.919, 125.894 459.067, 145.313 472.485, 111.550 "
fill = "none" stroke = "black"/>
</g>
<g>
<polygon points = "837.947, 296.784 812.610, 273.312 841.405, 272.986 "
fill = "none" stroke = "black"/>
</g>
<g>
<polygon points = "458.049, 870.510 365.477, 847.538 340.733, 717.212 453.861, 680.833 528.474, 685.893 550.641, 720.725 490.288, 858.731 "
fill = "none" stroke = "black"/>
</g>
<g>
<polygon points = "225.031, 879.619 282.658, 889.229 203.393, 1000.000 191.857, 1000.000 "
fill = "none" stroke = "black"/>
</g>
<g>
<polygon points = "465.009, 652.389 453.861, 680.833 340.733, 717.212 306.665, 693.974 306.017, 692.663 306.997, 576.177 386.381, 545.994 425.409, 568.941 "
fill = "none" stroke = "black"/>
</g>
<g>
<polygon points = ""
fill = "none" stroke = "black"/>
</g>
<g>
<polygon points = "669.893, 524.762 661.122, 569.649 654.603, 570.548 642.985, 535.753 "
fill = "none" stroke = "black"/>
</g>
<g>
<polygon points = "200.053, 186.129 149.457, 70.144 164.583, 31.655 337.846, 106.027 "
fill = "none" stroke = "black"/>
</g>
<g>
<polygon points = "148.173, 423.232 144.287, 422.385 72.590, 343.474 120.422, 270.160 209.427, 238.864 284.210, 307.774 "
fill = "none" stroke = "black"/>
</g>
<g>
<polygon points = "556.295, 521.722 642.985, 535.753 654.603, 570.548 592.791, 619.895 545.481, 651.620 "
fill = "none" stroke = "black"/>
</g>
<g>
<polygon points = "888.283, 503.915 906.835, 421.873 1000.000, 402.477 1000.000, 492.190 896.254, 504.086 "
fill = "none" stroke = "black"/>
</g>
<g>
<polygon points = "118.253, 644.108 169.820, 590.738 188.755, 601.591 212.083, 688.988 181.726, 747.274 176.512, 751.464 133.019, 752.126 123.232, 750.812 "
fill = "none" stroke = "black"/>
</g>
<g>
<polygon points = "284.210, 307.774 209.427, 238.864 200.943, 204.044 200.053, 186.129 337.846, 106.027 369.791, 102.110 405.658, 154.551 297.635, 309.940 "
fill = "none" stroke = "black"/>
</g>
<g>
<polygon points = ""
fill = "none" stroke = "black"/>
</g>
<g>
<polygon points = ""
fill = "none" stroke = "black"/>
</g>
<g>
<polygon points = "253.770, 487.634 177.865, 463.304 148.173, 423.232 284.210, 307.774 297.635, 309.940 321.737, 339.523 "
fill = "none" stroke = "black"/>
</g>
<g>
<polygon points = "686.447, 504.793 679.489, 513.647 669.893, 524.762 642.985, 535.753 556.295, 521.722 516.238, 471.816 507.365, 445.268 688.435, 482.463 "
fill = "none" stroke = "black"/>
</g>
<g>
<polygon points = "837.542, 536.981 844.136, 538.127 847.815, 544.221 889.948, 636.357 879.335, 791.162 815.702, 796.696 789.612, 783.569 743.584, 739.204 727.210, 710.795 728.235, 690.774 828.818, 544.504 "
fill = "none" stroke = "black"/>
</g>
<g>
<polygon points = "271.624, 507.568 253.770, 487.634 321.737, 339.523 354.858, 363.476 389.558, 399.691 "
fill = "none" stroke = "black"/>
</g>
<g>
<polygon points = "659.515, 984.903 815.702, 796.696 879.335, 791.162 885.517, 794.661 895.617, 884.360 893.360, 916.081 811.224, 1000.000 661.546, 1000.000 "
fill = "none" stroke = "black"/>
</g>
<g>
<polygon points = "560.698, 213.632 551.337, 279.237 508.911, 232.119 492.220, 192.377 "
fill = "none" stroke = "black"/>
</g>
<g>
<polygon points = ""
fill = "none" stroke = "black"/>
</g>
<g>
<polygon points = "453.861, 680.833 465.009, 652.389 528.911, 681.169 528.474, 685.893 "
fill = "none" stroke = "black"/>
</g>
<g>
<polygon points = ""
fill = "none" stroke = "black"/>
</g>
<g>
<polygon points = "920.048, 176.224 926.293, 150.961 1000.000, 148.493 1000.000, 201.169 "
fill = "none" stroke = "black"/>
</g>
<g>
<polygon points = ""
fill = "none" stroke = "black"/>
</g>
<g>
<polygon points = "647.560, 964.501 616.520, 930.534 591.250, 892.107 584.303, 817.054 696.541, 742.150 743.584, 739.204 789.612, 783.569 "
fill = "none" stroke = "black"/>
</g>
<g>
<polygon points = "659.515, 984.903 647.560, 964.501 789.612, 783.569 815.702, 796.696 "
fill = "none" stroke = "black"/>
</g>
<g>
<polygon points = "926.293, 150.961 907.839, 0.000 1000.000, 0.000 1000.000, 148.493 "
fill = "none" stroke = "black"/>
</g>
<g>
<polygon points = "722.632, 86.307 689.101, 199.853 633.334, 179.141 597.169, 118.096 634.333, 30.307 650.994, 17.764 705.507, 3.095 "
fill = "none" stroke = "black"/>
</g>
<g>
<polygon points = "202.584, 601.235 284.415, 552.859 306.997, 576.177 306.017, 692.663 244.123, 667.090 "
fill = "none" stroke = "black"/>
</g>
<g>
<polygon points = "888.283, 503.915 855.831, 529.755 844.136, 538.127 837.542, 536.981 829.578, 530.523 775.055, 431.433 852.626, 352.182 896.832, 379.911 906.835, 421.873 "
fill = "none" stroke = "black"/>
</g>
<g>
<polygon points = "893.360, 916.081 949.076, 1000.000 811.224, 1000.000 "
fill = "none" stroke = "black"/>
</g>
<g>
<polygon points = "553.995, 288.277 551.337, 279.237 560.698, 213.632 633.334, 179.141 689.101, 199.853 701.678, 212.684 705.888, 227.721 642.636, 322.741 572.787, 326.865 "
fill = "none" stroke = "black"/>
</g>
<g>
<polygon points = "148.173, 423.232 177.865, 463.304 170.130, 580.849 27.473, 525.375 144.287, 422.385 "
fill = "none" stroke = "black"/>
</g>
<g>
<polygon points = "382.839, 976.737 351.418, 864.184 365.477, 847.538 458.049, 870.510 465.140, 897.042 424.266, 998.448 "
fill = "none" stroke = "black"/>
</g>
<g>
<polygon points = "118.253, 644.108 123.232, 750.812 118.400, 751.694 0.000, 732.797 0.000, 653.751 "
fill = "none" stroke = "black"/>
</g>
<g>
<polygon points = "465.009, 652.389 425.409, 568.941 516.238, 471.816 556.295, 521.722 545.481, 651.620 528.911, 681.169 "
fill = "none" stroke = "black"/>
</g>
<g>
<polygon points = "560.698, 213.632 492.220, 192.377 453.125, 153.056 459.067, 145.313 490.919, 125.894 597.169, 118.096 633.334, 179.141 "
fill = "none" stroke = "black"/>
</g>
<g>
<polygon points = "181.726, 747.274 306.665, 693.974 340.733, 717.212 365.477, 847.538 351.418, 864.184 282.658, 889.229 225.031, 879.619 222.338, 875.121 176.512, 751.464 "
fill = "none" stroke = "black"/>
</g>
<g>
<polygon points = "686.447, 504.793 735.521, 514.206 679.489, 513.647 "
fill = "none" stroke = "black"/>
</g>
<g>
<polygon points = "654.603, 570.548 661.122, 569.649 700.805, 602.870 728.235, 690.774 727.210, 710.795 641.619, 724.720 558.797, 726.430 557.699, 725.561 592.791, 619.895 "
fill = "none" stroke = "black"/>
</g>
<g>
<polygon points = "650.994, 17.764 634.333, 30.307 635.103, 0.000 670.294, 0.000 "
fill = "none" stroke = "black"/>
</g>
<g>
<circle cx = "850.324" cy = "83.887" r = "3" />
<circle cx = "980.084" cy = "564.875" r = "3" />
<circle cx = "95.667" cy = "882.874" r = "3" />
<circle cx = "666.114" cy = "739.492" r = "3" />
<circle cx = "615.331" cy = "420.127" r = "3" />
<circle cx = "146.446" cy = "851.071" r = "3" />
<circle cx = "442.728" cy = "63.701" r = "3" />
<circle cx = "449.274" cy = "271.535" r = "3" />
<circle cx = "803.668" cy = "186.568" r = "3" />
<circle cx = "141.314" cy = "880.154" r = "3" />
<circle cx = "639.224" cy = "651.518" r = "3" />
<circle cx = "745.239" cy = "627.001" r = "3" />
<circle cx = "741.127" cy = "332.967" r = "3" />
<circle cx = "653.987" cy = "91.957" r = "3" />
<circle cx = "726.526" cy = "122.941" r = "3" />
<circle cx = "930.454" cy = "282.800" r = "3" />
<circle cx = "959.302" cy = "674.437" r = "3" />
<circle cx = "488.625" cy = "573.957" r = "3" />
<circle cx = "654.970" cy = "774.605" r = "3" />
<circle cx = "45.694" cy = "19.982" r = "3" />
<circle cx = "736.522" cy = "485.055" r = "3" />
<circle cx = "530.959" cy = "809.507" r = "3" />
<circle cx = "475.541" cy = "73.719" r = "3" />
<circle cx = "943.811" cy = "905.916" r = "3" />
<circle cx = "955.937" cy = "400.811" r = "3" />
<circle cx = "100.162" cy = "174.212" r = "3" />
<circle cx = "485.636" cy = "964.861" r = "3" />
<circle cx = "19.191" cy = "161.875" r = "3" />
<circle cx = "398.034" cy = "953.005" r = "3" />
<circle cx = "214.070" cy = "700.205" r = "3" />
<circle cx = "778.584" cy = "649.135" r = "3" />
<circle cx = "494.682" cy = "274.620" r = "3" />
<circle cx = "116.285" cy = "208.136" r = "3" />
<circle cx = "63.695" cy = "809.537" r = "3" />
<circle cx = "159.882" cy = "635.078" r = "3" />
<circle cx = "36.428" cy = "240.078" r = "3" />
<circle cx = "281.818" cy = "54.308" r = "3" />
<circle cx = "832.683" cy = "425.003" r = "3" />
<circle cx = "965.038" cy = "587.074" r = "3" />
<circle cx = "18.334" cy = "441.042" r = "3" />
<circle cx = "557.283" cy = "60.223" r = "3" />
<circle cx = "473.510" cy = "306.187" r = "3" />
<circle cx = "81.466" cy = "603.470" r = "3" />
<circle cx = "356.570" cy = "507.688" r = "3" />
<circle cx = "983.891" cy = "931.433" r = "3" />
<circle cx = "943.928" cy = "575.377" r = "3" />
<circle cx = "731.196" cy = "382.800" r = "3" />
<circle cx = "721.087" cy = "574.029" r = "3" />
<circle cx = "402.005" cy = "37.430" r = "3" />
<circle cx = "315.315" cy = "959.567" r = "3" />
<circle cx = "497.846" cy = "909.676" r = "3" />
<circle cx = "445.055" cy = "526.553" r = "3" />
<circle cx = "181.979" cy = "653.252" r = "3" />
<circle cx = "780.445" cy = "76.895" r = "3" />
<circle cx = "841.882" cy = "63.183" r = "3" />
<circle cx = "215.144" cy = "547.630" r = "3" />
<circle cx = "119.230" cy = "844.967" r = "3" />
<circle cx = "528.159" cy = "97.652" r = "3" />
<circle cx = "804.549" cy = "264.504" r = "3" />
<circle cx = "447.990" cy = "773.223" r = "3" />
<circle cx = "243.809" cy = "908.399" r = "3" />
<circle cx = "395.675" cy = "610.538" r = "3" />
<circle cx = "994.060" cy = "929.144" r = "3" />
<circle cx = "639.009" cy = "557.990" r = "3" />
<circle cx = "260.345" cy = "104.335" r = "3" />
<circle cx = "154.635" cy = "317.200" r = "3" />
<circle cx = "587.941" cy = "575.042" r = "3" />
<circle cx = "967.811" cy = "457.846" r = "3" />
<circle cx = "143.593" cy = "663.498" r = "3" />
<circle cx = "295.329" cy = "164.516" r = "3" />
<circle cx = "20.162" cy = "205.600" r = "3" />
<circle cx = "9.704" cy = "438.269" r = "3" />
<circle cx = "252.169" cy = "432.119" r = "3" />
<circle cx = "604.410" cy = "473.293" r = "3" />
<circle cx = "798.154" cy = "663.389" r = "3" />
<circle cx = "312.965" cy = "460.017" r = "3" />
<circle cx = "820.452" cy = "919.805" r = "3" />
<circle cx = "540.795" cy = "233.099" r = "3" />
<circle cx = "713.510" cy = "576.527" r = "3" />
<circle cx = "457.384" cy = "634.723" r = "3" />
<circle cx = "141.432" cy = "677.470" r = "3" />
<circle cx = "982.335" cy = "116.519" r = "3" />
<circle cx = "73.756" cy = "164.464" r = "3" />
<circle cx = "669.693" cy = "796.666" r = "3" />
<circle cx = "713.710" cy = "831.224" r = "3" />
<circle cx = "980.708" cy = "67.949" r = "3" />
<circle cx = "656.782" cy = "102.345" r = "3" />
<circle cx = "251.617" cy = "609.327" r = "3" />
<circle cx = "838.935" cy = "428.703" r = "3" />
<circle cx = "893.589" cy = "991.388" r = "3" />
<circle cx = "604.827" cy = "242.235" r = "3" />
<circle cx = "105.974" cy = "540.446" r = "3" />
<circle cx = "408.182" cy = "933.642" r = "3" />
<circle cx = "86.578" cy = "666.159" r = "3" />
<circle cx = "488.009" cy = "566.722" r = "3" />
<circle cx = "564.391" cy = "157.079" r = "3" />
<circle cx = "260.413" cy = "808.837" r = "3" />
<circle cx = "721.176" cy = "565.062" r = "3" />
<circle cx = "652.519" cy = "655.934" r = "3" />
<circle cx = "626.393" cy = "61.979" r = "3" />
</g>
</svg>
