<svg xmlns = "http://www.w3.org/2000/svg" width = "1000" height = "1000">
<g>
<polygon points = "887.620, 162.774 793.687, 120.092 791.888, 114.390 823.752, 82.650 882.782, 58.578 972.439, 123.852 "
fill = "none" stroke = "black"/>
</g>
<g>
<polygon points = "972.439, 123.852 882.782, 58.578 848.655, 15.185 841.264, 0.000 1000.000, 0.000 1000.000, 120.607 "
fill = "none" stroke = "black"/>
</g>
<g>
<polygon points = "344.393, 413.746 451.147, 319.336 471.010, 432.713 "
fill = "none" stroke = "black"/>
</g>
<g>
<polygon points = "48.556, 827.312 161.511, 897.527 67.827, 888.594 "
fill = "none" stroke = "black"/>
</g>
<g>
<polygon points = "949.504, 367.644 930.992, 369.052 920.513, 323.239 960.100, 281.170 1000.000, 269.060 1000.000, 291.148 "
fill = "none" stroke = "black"/>
</g>
<g>
<polygon points = "249.028, 537.329 264.471, 357.135 339.531, 415.706 343.751, 470.216 252.449, 540.448 "
fill = "none" stroke = "black"/>
</g>
<g>
<polygon points = "561.050, 376.984 669.121, 401.084 680.353, 444.329 647.479, 505.690 615.998, 500.124 545.183, 434.319 "
fill = "none" stroke = "black"/>
</g>
<g>
<polygon points = "978.408, 883.344 868.892, 944.698 862.916, 771.365 916.817, 760.491 1000.000, 769.334 1000.000, 867.977 "
fill = "none" stroke = "black"/>
</g>
<g>
<polygon points = "205.655, 51.237 204.332, 118.804 163.200, 164.568 89.136, 141.755 148.414, 73.368 203.442, 45.093 "
fill = "none" stroke = "black"/>
</g>
<g>
<polygon points = "437.747, 138.766 380.330, 115.728 454.987, 0.000 480.112, 0.000 "
fill = "none" stroke = "black"/>
</g>
<g>
<polygon points = "254.339, 602.944 252.449, 540.448 343.751, 470.216 412.975, 546.732 410.072, 551.597 "
fill = "none" stroke = "black"/>
</g>
<g>
<polygon points = "785.265, 104.872 711.552, 101.432 709.419, 0.000 757.042, 0.000 "
fill = "none" stroke = "black"/>
</g>
<g>
<polygon points = "858.521, 224.921 791.173, 225.683 734.854, 191.421 793.687, 120.092 887.620, 162.774 "
fill = "none" stroke = "black"/>
</g>
<g>
<polygon points = "853.079, 986.536 724.877, 883.872 729.975, 835.511 781.569, 754.120 827.960, 751.280 862.916, 771.365 868.892, 944.698 "
fill = "none" stroke = "black"/>
</g>
<g>
<polygon points = "148.414, 73.368 89.136, 141.755 35.008, 140.286 0.000, 123.843 0.000, 34.300 "
fill = "none" stroke = "black"/>
</g>
<g>
<polygon points = "538.335, 699.569 543.221, 660.463 684.030, 566.040 707.699, 579.875 709.840, 705.035 551.959, 725.232 "
fill = "none" stroke = "black"/>
</g>
<g>
<polygon points = "775.488, 293.888 756.183, 293.324 694.019, 224.157 714.411, 196.950 734.854, 191.421 791.173, 225.683 "
fill = "none" stroke = "black"/>
</g>
<g>
<polygon points = "249.137, 343.874 229.475, 315.963 283.103, 264.954 417.433, 275.998 452.438, 316.780 451.147, 319.336 344.393, 413.746 339.531, 415.706 264.471, 357.135 "
fill = "none" stroke = "black"/>
</g>
<g>
<polygon points = "751.728, 360.986 684.999, 347.688 683.787, 342.816 749.204, 301.386 "
fill = "none" stroke = "black"/>
</g>
<g>
<polygon points = "880.289, 422.822 870.726, 418.839 856.574, 310.772 920.513, 323.239 930.992, 369.052 "
fill = "none" stroke = "black"/>
</g>
<g>
<polygon points = "863.691, 252.762 960.100, 281.170 920.513, 323.239 856.574, 310.772 849.881, 301.869 "
fill = "none" stroke = "black"/>
</g>
<g>
<polygon points = "734.854, 191.421 714.411, 196.950 677.181, 128.988 711.552, 101.432 785.265, 104.872 791.888, 114.390 793.687, 120.092 "
fill = "none" stroke = "black"/>
</g>
<g>
<polygon points = "609.182, 107.359 545.285, 169.691 517.630, 157.221 510.619, 31.886 "
fill = "none" stroke = "black"/>
</g>
<g>
<polygon points = "638.591, 281.906 640.243, 254.302 694.019, 224.157 756.183, 293.324 749.204, 301.386 683.787, 342.816 "
fill = "none" stroke = "black"/>
</g>
<g>
<polygon points = "916.817, 760.491 934.768, 644.569 942.192, 629.444 1000.000, 633.239 1000.000, 769.334 "
fill = "none" stroke = "black"/>
</g>
<g>
<polygon points = "514.062, 586.059 432.214, 543.762 490.312, 450.718 508.778, 447.709 537.404, 558.484 "
fill = "none" stroke = "black"/>
</g>
<g>
<polygon points = "401.612, 591.367 484.175, 695.186 376.102, 711.298 347.512, 694.984 "
fill = "none" stroke = "black"/>
</g>
<g>
<polygon points = "653.156, 810.962 592.556, 819.597 546.465, 788.856 551.959, 725.232 709.840, 705.035 710.674, 705.856 "
fill = "none" stroke = "black"/>
</g>
<g>
<polygon points = "645.800, 922.349 647.042, 919.444 724.877, 883.872 853.079, 986.536 854.224, 1000.000 745.069, 1000.000 "
fill = "none" stroke = "black"/>
</g>
<g>
<polygon points = "949.504, 367.644 1000.000, 291.148 1000.000, 393.155 "
fill = "none" stroke = "black"/>
</g>
<g>
<polygon points = "746.865, 436.404 783.120, 560.540 707.699, 579.875 684.030, 566.040 647.479, 505.690 680.353, 444.329 "
fill = "none" stroke = "black"/>
</g>
<g>
<polygon points = "208.728, 506.311 249.137, 343.874 264.471, 357.135 249.028, 537.329 "
fill = "none" stroke = "black"/>
</g>
<g>
<polygon points = "118.906, 744.697 115.958, 700.788 139.222, 682.718 262.515, 633.289 288.066, 687.832 177.047, 769.001 "
fill = "none" stroke = "black"/>
</g>
<g>
<polygon points = "510.619, 31.886 517.630, 157.221 463.080, 156.533 437.747, 138.766 480.112, 0.000 505.355, 0.000 "
fill = "none" stroke = "black"/>
</g>
<g>
<polygon points = "202.900, 0.000 203.442, 45.093 148.414, 73.368 0.000, 34.300 0.000, 0.000 "
fill = "none" stroke = "black"/>
</g>
<g>
<polygon points = "67.827, 888.594 161.511, 897.527 169.120, 901.037 165.200, 966.779 157.746, 1000.000 68.606, 1000.000 "
fill = "none" stroke = "black"/>
</g>
<g>
<polygon points = "920.666, 476.533 880.289, 422.822 930.992, 369.052 949.504, 367.644 1000.000, 393.155 1000.000, 456.536 "
fill = "none" stroke = "black"/>
</g>
<g>
<polygon points = "23.909, 792.499 48.556, 827.312 67.827, 888.594 68.606, 1000.000 0.000, 1000.000 0.000, 792.849 "
fill = "none" stroke = "black"/>
</g>
<g>
<polygon points = "849.881, 301.869 856.574, 310.772 870.726, 418.839 827.937, 422.781 789.842, 408.373 780.930, 377.555 803.879, 312.612 "
fill = "none" stroke = "black"/>
</g>
<g>
<polygon points = "446.133, 927.178 529.535, 945.631 518.193, 1000.000 436.277, 1000.000 "
fill = "none" stroke = "black"/>
</g>
<g>
<polygon points = "529.535, 945.631 542.652, 933.785 627.989, 946.554 627.640, 1000.000 518.193, 1000.000 "
fill = "none" stroke = "black"/>
</g>
<g>
<polygon points = "920.666, 476.533 907.142, 531.001 885.098, 559.636 834.085, 578.844 785.067, 560.575 827.937, 422.781 870.726, 418.839 880.289, 422.822 "
fill = "none" stroke = "black"/>
</g>
<g>
<polygon points = "344.287, 891.826 354.124, 884.357 436.193, 904.282 446.133, 927.178 436.277, 1000.000 356.674, 1000.000 "
fill = "none" stroke = "black"/>
</g>
<g>
<polygon points = "402.118, 793.635 359.536, 850.348 309.563, 786.472 310.821, 696.540 347.512, 694.984 376.102, 711.298 "
fill = "none" stroke = "black"/>
</g>
<g>
<polygon points = "234.853, 841.609 309.563, 786.472 359.536, 850.348 354.124, 884.357 344.287, 891.826 314.636, 893.090 310.506, 891.568 "
fill = "none" stroke = "black"/>
</g>
<g>
<polygon points = "783.120, 560.540 785.067, 560.575 834.085, 578.844 838.583, 671.519 827.960, 751.280 781.569, 754.120 710.674, 705.856 709.840, 705.035 707.699, 579.875 "
fill = "none" stroke = "black"/>
</g>
<g>
<polygon points = "537.404, 558.484 508.778, 447.709 545.183, 434.319 615.998, 500.124 "
fill = "none" stroke = "black"/>
</g>
<g>
<polygon points = "683.008, 357.062 773.837, 417.463 746.865, 436.404 680.353, 444.329 669.121, 401.084 "
fill = "none" stroke = "black"/>
</g>
<g>
<polygon points = "35.008, 140.286 89.136, 141.755 163.200, 164.568 211.802, 313.690 133.411, 337.299 "
fill = "none" stroke = "black"/>
</g>
<g>
<polygon points = "165.200, 966.779 310.506, 891.568 314.636, 893.090 253.274, 1000.000 157.746, 1000.000 "
fill = "none" stroke = "black"/>
</g>
<g>
<polygon points = "55.624, 410.609 105.436, 357.436 133.411, 337.299 211.802, 313.690 229.475, 315.963 249.137, 343.874 208.728, 506.311 115.288, 499.421 "
fill = "none" stroke = "black"/>
</g>
<g>
<polygon points = "101.786, 666.133 134.735, 584.391 203.694, 604.330 139.222, 682.718 115.958, 700.788 "
fill = "none" stroke = "black"/>
</g>
<g>
<polygon points = "314.636, 893.090 344.287, 891.826 356.674, 1000.000 253.274, 1000.000 "
fill = "none" stroke = "black"/>
</g>
<g>
<polygon points = "803.879, 312.612 780.930, 377.555 751.728, 360.986 749.204, 301.386 756.183, 293.324 775.488, 293.888 "
fill = "none" stroke = "black"/>
</g>
<g>
<polygon points = "351.105, 113.671 205.655, 51.237 203.442, 45.093 202.900, 0.000 335.470, 0.000 351.401, 113.446 "
fill = "none" stroke = "black"/>
</g>
<g>
<polygon points = "677.181, 128.988 714.411, 196.950 694.019, 224.157 640.243, 254.302 554.500, 191.618 545.285, 169.691 609.182, 107.359 621.350, 97.334 "
fill = "none" stroke = "black"/>
</g>
<g>
<polygon points = "627.989, 946.554 542.652, 933.785 519.296, 814.984 546.465, 788.856 592.556, 819.597 647.042, 919.444 645.800, 922.349 "
fill = "none" stroke = "black"/>
</g>
<g>
<polygon points = "942.192, 629.444 885.098, 559.636 907.142, 531.001 1000.000, 565.604 1000.000, 633.239 "
fill = "none" stroke = "black"/>
</g>
<g>
<polygon points = "627.989, 946.554 645.800, 922.349 745.069, 1000.000 627.640, 1000.000 "
fill = "none" stroke = "black"/>
</g>
<g>
<polygon points = "554.500, 191.618 640.243, 254.302 638.591, 281.906 557.363, 356.971 489.627, 311.989 "
fill = "none" stroke = "black"/>
</g>
<g>
<polygon points = "621.350, 97.334 609.182, 107.359 510.619, 31.886 505.355, 0.000 636.974, 0.000 "
fill = "none" stroke = "black"/>
</g>
<g>
<polygon points = "907.142, 531.001 920.666, 476.533 1000.000, 456.536 1000.000, 565.604 "
fill = "none" stroke = "black"/>
</g>
<g>
<polygon points = "711.552, 101.432 677.181, 128.988 621.350, 97.334 636.974, 0.000 709.419, 0.000 "
fill = "none" stroke = "black"/>
</g>
<g>
<polygon points = "114.386, 541.790 134.735, 584.391 101.786, 666.133 8.093, 616.654 "
fill = "none" stroke = "black"/>
</g>
<g>
<polygon points = "838.583, 671.519 834.085, 578.844 885.098, 559.636 942.192, 629.444 934.768, 644.569 "
fill = "none" stroke = "black"/>
</g>
<g>
<polygon points = "452.438, 316.780 489.627, 311.989 557.363, 356.971 561.050, 376.984 545.183, 434.319 508.778, 447.709 490.312, 450.718 471.010, 432.713 451.147, 319.336 "
fill = "none" stroke = "black"/>
</g>
<g>
<polygon points = "853.079, 986.536 868.892, 944.698 978.408, 883.344 1000.000, 979.261 1000.000, 1000.000 854.224, 1000.000 "
fill = "none" stroke = "black"/>
</g>
<g>
<polygon points = "785.265, 104.872 757.042, 0.000 841.264, 0.000 848.655, 15.185 823.752, 82.650 791.888, 114.390 "
fill = "none" stroke = "black"/>
</g>
<g>
<polygon points = "515.751, 816.273 436.193, 904.282 354.124, 884.357 359.536, 850.348 402.118, 793.635 "
fill = "none" stroke = "black"/>
</g>
<g>
<polygon points = "780.930, 377.555 789.842, 408.373 773.837, 417.463 683.008, 357.062 684.999, 347.688 751.728, 360.986 "
fill = "none" stroke = "black"/>
</g>
<g>
<polygon points = "105.436, 357.436 55.624, 410.609 0.000, 419.188 0.000, 237.761 "
fill = "none" stroke = "black"/>
</g>
<g>
<polygon points = "490.312, 450.718 432.214, 543.762 412.975, 546.732 343.751, 470.216 339.531, 415.706 344.393, 413.746 471.010, 432.713 "
fill = "none" stroke = "black"/>
</g>
<g>
<polygon points = "380.330, 115.728 351.401, 113.446 335.470, 0.000 454.987, 0.000 "
fill = "none" stroke = "black"/>
</g>
<g>
<polygon points = "8.093, 616.654 101.786, 666.133 115.958, 700.788 118.906, 744.697 23.909, 792.499 0.000, 792.849 0.000, 616.249 "
fill = "none" stroke = "black"/>
</g>
<g>
<polygon points = "35.008, 140.286 133.411, 337.299 105.436, 357.436 0.000, 237.761 0.000, 123.843 "
fill = "none" stroke = "black"/>
</g>
<g>
<polygon points = "515.751, 816.273 519.296, 814.984 542.652, 933.785 529.535, 945.631 446.133, 927.178 436.193, 904.282 "
fill = "none" stroke = "black"/>
</g>
<g>
<polygon points = "114.386, 541.790 115.288, 499.421 208.728, 506.311 249.028, 537.329 252.449, 540.448 254.339, 602.944 253.732, 604.875 203.694, 604.330 134.735, 584.391 "
fill = "none" stroke = "black"/>
</g>
<g>
<polygon points = "452.438, 316.780 417.433, 275.998 429.133, 222.562 463.080, 156.533 517.630, 157.221 545.285, 169.691 554.500, 191.618 489.627, 311.989 "
fill = "none" stroke = "black"/>
</g>
<g>
<polygon points = "203.694, 604.330 253.732, 604.875 262.515, 633.289 139.222, 682.718 "
fill = "none" stroke = "black"/>
</g>
<g>
<polygon points = "429.133, 222.562 417.433, 275.998 283.103, 264.954 308.432, 182.202 "
fill = "none" stroke = "black"/>
</g>
<g>
<polygon points = "960.100, 281.170 863.691, 252.762 858.521, 224.921 887.620, 162.774 972.439, 123.852 1000.000, 120.607 1000.000, 269.060 "
fill = "none" stroke = "black"/>
</g>
<g>
<polygon points = "848.655, 15.185 882.782, 58.578 823.752, 82.650 "
fill = "none" stroke = "black"/>
</g>
<g>
<polygon points = "202.975, 834.545 177.047, 769.001 288.066, 687.832 310.821, 696.540 309.563, 786.472 234.853, 841.609 "
fill = "none" stroke = "black"/>
</g>
<g>
<polygon points = "432.214, 543.762 514.062, 586.059 543.221, 660.463 538.335, 699.569 484.175, 695.186 401.612, 591.367 410.072, 551.597 412.975, 546.732 "
fill = "none" stroke = "black"/>
</g>
<g>
<polygon points = "118.906, 744.697 177.047, 769.001 202.975, 834.545 169.120, 901.037 161.511, 897.527 48.556, 827.312 23.909, 792.499 "
fill = "none" stroke = "black"/>
</g>
<g>
<polygon points = "773.837, 417.463 789.842, 408.373 827.937, 422.781 785.067, 560.575 783.120, 560.540 746.865, 436.404 "
fill = "none" stroke = "black"/>
</g>
<g>
<polygon points = "838.583, 671.519 934.768, 644.569 916.817, 760.491 862.916, 771.365 827.960, 751.280 "
fill = "none" stroke = "black"/>
</g>
<g>
<polygon points = "863.691, 252.762 849.881, 301.869 803.879, 312.612 775.488, 293.888 791.173, 225.683 858.521, 224.921 "
fill = "none" stroke = "black"/>
</g>
<g>
<polygon points = "55.624, 410.609 115.288, 499.421 114.386, 541.790 8.093, 616.654 0.000, 616.249 0.000, 419.188 "
fill = "none" stroke = "black"/>
</g>
<g>
<polygon points = "211.802, 313.690 163.200, 164.568 204.332, 118.804 310.082, 171.169 308.432, 182.202 283.103, 264.954 229.475, 315.963 "
fill = "none" stroke = "black"/>
</g>
<g>
<polygon points = "165.200, 966.779 169.120, 901.037 202.975, 834.545 234.853, 841.609 310.506, 891.568 "
fill = "none" stroke = "black"/>
</g>
<g>
<polygon points = "310.821, 696.540 288.066, 687.832 262.515, 633.289 253.732, 604.875 254.339, 602.944 410.072, 551.597 401.612, 591.367 347.512, 694.984 "
fill = "none" stroke = "black"/>
</g>
<g>
<polygon points = "429.133, 222.562 308.432, 182.202 310.082, 171.169 351.105, 113.671 351.401, 113.446 380.330, 115.728 437.747, 138.766 463.080, 156.533 "
fill = "none" stroke = "black"/>
</g>
<g>
<polygon points = "978.408, 883.344 1000.000, 867.977 1000.000, 979.261 "
fill = "none" stroke = "black"/>
</g>
<g>
<polygon points = "557.363, 356.971 638.591, 281.906 683.787, 342.816 684.999, 347.688 683.008, 357.062 669.121, 401.084 561.050, 376.984 "
fill = "none" stroke = "black"/>
</g>
<g>
<polygon points = "519.296, 814.984 515.751, 816.273 402.118, 793.635 376.102, 711.298 484.175, 695.186 538.335, 699.569 551.959, 725.232 546.465, 788.856 "
fill = "none" stroke = "black"/>
</g>
<g>
<polygon points = "310.082, 171.169 204.332, 118.804 205.655, 51.237 351.105, 113.671 "
fill = "none" stroke = "black"/>
</g>
<g>
<polygon points = "592.556, 819.597 653.156, 810.962 729.975, 835.511 724.877, 883.872 647.042, 919.444 "
fill = "none" stroke = "black"/>
</g>
<g>
<polygon points = "653.156, 810.962 710.674, 705.856 781.569, 754.120 729.975, 835.511 "
fill = "none" stroke = "black"/>
</g>
<g>
<polygon points = "684.030, 566.040 543.221, 660.463 514.062, 586.059 537.404, 558.484 615.998, 500.124 647.479, 505.690 "
fill = "none" stroke = "black"/>
</g>
<g>
<circle cx = "850.324" cy = "83.887" r = "3" />
<circle cx = "896.898" cy = "19.916" r = "3" />
<circle cx = "435.125" cy = "396.101" r = "3" />
<circle cx = "95.667" cy = "882.874" r = "3" />
<circle cx = "950.845" cy = "333.886" r = "3" />
<circle cx = "260.508" cy = "470.013" r = "3" />
<circle cx = "615.331" cy = "420.127" r = "3" />
<circle cx = "940.261" cy = "853.554" r = "3" />
<circle cx = "148.929" cy = "102.155" r = "3" />
<circle cx = "442.728" cy = "63.701" r = "3" />
<circle cx = "322.595" cy = "550.726" r = "3" />
<circle cx = "728.465" cy = "81.410" r = "3" />
<circle cx = "803.668" cy = "186.568" r = "3" />
<circle cx = "791.415" cy = "858.686" r = "3" />
<circle cx = "119.846" cy = "76.945" r = "3" />
<circle cx = "639.224" cy = "651.518" r = "3" />
<circle cx = "762.182" cy = "254.761" r = "3" />
<circle cx = "372.999" cy = "325.852" r = "3" />
<circle cx = "741.127" cy = "332.967" r = "3" />
<circle cx = "897.825" cy = "346.013" r = "3" />
<circle cx = "908.043" cy = "293.609" r = "3" />
<circle cx = "726.526" cy = "122.941" r = "3" />
<circle cx = "550.144" cy = "69.546" r = "3" />
<circle cx = "717.200" cy = "295.188" r = "3" />
<circle cx = "959.302" cy = "674.437" r = "3" />
<circle cx = "512.728" cy = "511.375" r = "3" />
<circle cx = "426.043" cy = "649.109" r = "3" />
<circle cx = "654.970" cy = "774.605" r = "3" />
<circle cx = "714.842" cy = "954.306" r = "3" />
<circle cx = "980.018" cy = "353.143" r = "3" />
<circle cx = "736.522" cy = "485.055" r = "3" />
<circle cx = "249.169" cy = "469.041" r = "3" />
<circle cx = "190.493" cy = "674.488" r = "3" />
<circle cx = "475.541" cy = "73.719" r = "3" />
<circle cx = "125.310" cy = "56.189" r = "3" />
<circle cx = "94.084" cy = "899.471" r = "3" />
<circle cx = "955.937" cy = "400.811" r = "3" />
<circle cx = "41.725" cy = "899.838" r = "3" />
<circle cx = "825.788" cy = "355.447" r = "3" />
<circle cx = "485.636" cy = "964.861" r = "3" />
<circle cx = "562.084" cy = "980.809" r = "3" />
<circle cx = "838.125" cy = "489.374" r = "3" />
<circle cx = "398.034" cy = "953.005" r = "3" />
<circle cx = "347.969" cy = "785.930" r = "3" />
<circle cx = "299.795" cy = "823.619" r = "3" />
<circle cx = "778.584" cy = "649.135" r = "3" />
<circle cx = "536.168" cy = "505.318" r = "3" />
<circle cx = "725.380" cy = "391.546" r = "3" />
<circle cx = "116.285" cy = "208.136" r = "3" />
<circle cx = "258.254" cy = "936.305" r = "3" />
<circle cx = "190.463" cy = "454.437" r = "3" />
<circle cx = "159.882" cy = "635.078" r = "3" />
<circle cx = "305.760" cy = "963.572" r = "3" />
<circle cx = "759.922" cy = "332.172" r = "3" />
<circle cx = "281.818" cy = "54.308" r = "3" />
<circle cx = "645.520" cy = "167.317" r = "3" />
<circle cx = "574.997" cy = "894.508" r = "3" />
<circle cx = "965.038" cy = "587.074" r = "3" />
<circle cx = "693.441" cy = "981.666" r = "3" />
<circle cx = "558.958" cy = "285.720" r = "3" />
<circle cx = "557.283" cy = "60.223" r = "3" />
<circle cx = "987.614" cy = "526.490" r = "3" />
<circle cx = "693.813" cy = "82.139" r = "3" />
<circle cx = "81.466" cy = "603.470" r = "3" />
<circle cx = "896.132" cy = "643.430" r = "3" />
<circle cx = "492.312" cy = "386.082" r = "3" />
<circle cx = "983.891" cy = "931.433" r = "3" />
<circle cx = "822.618" cy = "56.072" r = "3" />
<circle cx = "424.623" cy = "843.485" r = "3" />
<circle cx = "731.196" cy = "382.800" r = "3" />
<circle cx = "3.100" cy = "278.913" r = "3" />
<circle cx = "425.971" cy = "457.203" r = "3" />
<circle cx = "402.005" cy = "37.430" r = "3" />
<circle cx = "38.577" cy = "684.685" r = "3" />
<circle cx = "40.433" cy = "246.022" r = "3" />
<circle cx = "497.846" cy = "909.676" r = "3" />
<circle cx = "183.052" cy = "554.945" r = "3" />
<circle cx = "473.447" cy = "239.635" r = "3" />
<circle cx = "181.979" cy = "653.252" r = "3" />
<circle cx = "381.738" cy = "219.555" r = "3" />
<circle cx = "923.105" cy = "242.492" r = "3" />
<circle cx = "841.882" cy = "63.183" r = "3" />
<circle cx = "271.187" cy = "784.856" r = "3" />
<circle cx = "452.370" cy = "628.172" r = "3" />
<circle cx = "119.230" cy = "844.967" r = "3" />
<circle cx = "781.767" cy = "471.841" r = "3" />
<circle cx = "902.348" cy = "665.618" r = "3" />
<circle cx = "804.549" cy = "264.504" r = "3" />
<circle cx = "45.222" cy = "552.010" r = "3" />
<circle cx = "226.777" cy = "172.124" r = "3" />
<circle cx = "243.809" cy = "908.399" r = "3" />
<circle cx = "340.268" cy = "604.325" r = "3" />
<circle cx = "389.462" cy = "196.456" r = "3" />
<circle cx = "994.060" cy = "929.144" r = "3" />
<circle cx = "628.518" cy = "360.991" r = "3" />
<circle cx = "442.010" cy = "756.215" r = "3" />
<circle cx = "260.345" cy = "104.335" r = "3" />
<circle cx = "665.054" cy = "845.365" r = "3" />
<circle cx = "682.800" cy = "789.834" r = "3" />
<circle cx = "587.941" cy = "575.042" r = "3" />
</g>
</svg>
