<svg xmlns = "http://www.w3.org/2000/svg" width = "1000" height = "1000">
<g>
<polygon points = "845.947, 228.583 864.406, 0.000 1000.000, 0.000 1000.000, 296.121 "
fill = "none" stroke = "black"/>
</g>
<g>
<polygon points = ""
fill = "none" stroke = "black"/>
</g>
<g>
<polygon points = "242.330, 637.446 421.609, 859.930 429.956, 1000.000 0.000, 1000.000 0.000, 649.762 "
fill = "none" stroke = "black"/>
</g>
<g>
<polygon points = ""
fill = "none" stroke = "black"/>
</g>
<g>
<polygon points = "603.081, 557.862 429.877, 407.430 500.247, 319.840 776.716, 275.249 936.135, 505.337 "
fill = "none" stroke = "black"/>
</g>
<g>
<polygon points = ""
fill = "none" stroke = "black"/>
</g>
<g>
<polygon points = ""
fill = "none" stroke = "black"/>
</g>
<g>
<polygon points = "454.438, 304.238 296.263, 414.866 223.079, 424.469 0.000, 177.281 0.000, 71.961 "
fill = "none" stroke = "black"/>
</g>
<g>
<polygon points = ""
fill = "none" stroke = "black"/>
</g>
<g>
<polygon points = "421.609, 859.930 432.650, 872.143 488.730, 1000.000 429.956, 1000.000 "
fill = "none" stroke = "black"/>
</g>
<g>
<polygon points = ""
fill = "none" stroke = "black"/>
</g>
<g>
<polygon points = ""
fill = "none" stroke = "black"/>
</g>
<g>
<polygon points = "936.135, 505.337 776.716, 275.249 845.947, 228.583 1000.000, 296.121 1000.000, 522.859 "
fill = "none" stroke = "black"/>
</g>
<g>
<polygon points = ""
fill = "none" stroke = "black"/>
</g>
<g>
<polygon points = ""
fill = "none" stroke = "black"/>
</g>
<g>
<polygon points = ""
fill = "none" stroke = "black"/>
</g>
<g>
<polygon points = ""
fill = "none" stroke = "black"/>
</g>
<g>
<polygon points = ""
fill = "none" stroke = "black"/>
</g>
<g>
<polygon points = ""
fill = "none" stroke = "black"/>
</g>
<g>
<polygon points = ""
fill = "none" stroke = "black"/>
</g>
<g>
<polygon points = ""
fill = "none" stroke = "black"/>
</g>
<g>
<polygon points = ""
fill = "none" stroke = "black"/>
</g>
<g>
<polygon points = ""
fill = "none" stroke = "black"/>
</g>
<g>
<polygon points = ""
fill = "none" stroke = "black"/>
</g>
<g>
<polygon points = ""
fill = "none" stroke = "black"/>
</g>
<g>
<polygon points = ""
fill = "none" stroke = "black"/>
</g>
<g>
<polygon points = ""
fill = "none" stroke = "black"/>
</g>
<g>
<polygon points = ""
fill = "none" stroke = "black"/>
</g>
<g>
<polygon points = ""
fill = "none" stroke = "black"/>
</g>
<g>
<polygon points = ""
fill = "none" stroke = "black"/>
</g>
<g>
<polygon points = ""
fill = "none" stroke = "black"/>
</g>
<g>
<polygon points = ""
fill = "none" stroke = "black"/>
</g>
<g>
<polygon points = ""
fill = "none" stroke = "black"/>
</g>
<g>
<polygon points = ""
fill = "none" stroke = "black"/>
</g>
<g>
<polygon points = ""
fill = "none" stroke = "black"/>
</g>
<g>
<polygon points = ""
fill = "none" stroke = "black"/>
</g>
<g>
<polygon points = ""
fill = "none" stroke = "black"/>
</g>
<g>
<polygon points = ""
fill = "none" stroke = "black"/>
</g>
<g>
<polygon points = ""
fill = "none" stroke = "black"/>
</g>
<g>
<polygon points = ""
fill = "none" stroke = "black"/>
</g>
<g>
<polygon points = "864.406, 0.000 845.947, 228.583 776.716, 275.249 500.247, 319.840 454.438, 304.238 0.000, 71.961 0.000, 0.000 "
fill = "none" stroke = "black"/>
</g>
<g>
<polygon points = "296.263, 414.866 454.438, 304.238 500.247, 319.840 429.877, 407.430 "
fill = "none" stroke = "black"/>
</g>
<g>
<polygon points = "223.079, 424.469 242.330, 637.446 0.000, 649.762 0.000, 177.281 "
fill = "none" stroke = "black"/>
</g>
<g>
<polygon points = ""
fill = "none" stroke = "black"/>
</g>
<g>
<polygon points = "1000.000, 775.720 1000.000, 1000.000 813.536, 1000.000 "
fill = "none" stroke = "black"/>
</g>
<g>
<polygon points = ""
fill = "none" stroke = "black"/>
</g>
<g>
<polygon points = ""
fill = "none" stroke = "black"/>
</g>
<g>
<polygon points = ""
fill = "none" stroke = "black"/>
</g>
<g>
<polygon points = ""
fill = "none" stroke = "black"/>
</g>
<g>
<polygon points = ""
fill = "none" stroke = "black"/>
</g>
<g>
<polygon points = ""
fill = "none" stroke = "black"/>
</g>
<g>
<polygon points = ""
fill = "none" stroke = "black"/>
</g>
<g>
<polygon points = ""
fill = "none" stroke = "black"/>
</g>
<g>
<polygon points = ""
fill = "none" stroke = "black"/>
</g>
<g>
<polygon points = ""
fill = "none" stroke = "black"/>
</g>
<g>
<polygon points = ""
fill = "none" stroke = "black"/>
</g>
<g>
<polygon points = ""
fill = "none" stroke = "black"/>
</g>
<g>
<polygon points = ""
fill = "none" stroke = "black"/>
</g>
<g>
<polygon points = ""
fill = "none" stroke = "black"/>
</g>
<g>
<polygon points = ""
fill = "none" stroke = "black"/>
</g>
<g>
<polygon points = ""
fill = "none" stroke = "black"/>
</g>
<g>
<polygon points = ""
fill = "none" stroke = "black"/>
</g>
<g>
<polygon points = ""
fill = "none" stroke = "black"/>
</g>
<g>
<polygon points = ""
fill = "none" stroke = "black"/>
</g>
<g>
<polygon points = ""
fill = "none" stroke = "black"/>
</g>
<g>
<polygon points = ""
fill = "none" stroke = "black"/>
</g>
<g>
<polygon points = ""
fill = "none" stroke = "black"/>
</g>
<g>
<polygon points = ""
fill = "none" stroke = "black"/>
</g>
<g>
<polygon points = ""
fill = "none" stroke = "black"/>
</g>
<g>
<polygon points = ""
fill = "none" stroke = "black"/>
</g>
<g>
<polygon points = ""
fill = "none" stroke = "black"/>
</g>
<g>
<polygon points = ""
fill = "none" stroke = "black"/>
</g>
<g>
<polygon points = ""
fill = "none" stroke = "black"/>
</g>
<g>
<polygon points = ""
fill = "none" stroke = "black"/>
</g>
<g>
<polygon points = ""
fill = "none" stroke = "black"/>
</g>
<g>
<polygon points = ""
fill = "none" stroke = "black"/>
</g>
<g>
<polygon points = ""
fill = "none" stroke = "black"/>
</g>
<g>
<polygon points = ""
fill = "none" stroke = "black"/>
</g>
<g>
<polygon points = ""
fill = "none" stroke = "black"/>
</g>
<g>
<polygon points = ""
fill = "none" stroke = "black"/>
</g>
<g>
<polygon points = ""
fill = "none" stroke = "black"/>
</g>
<g>
<polygon points = ""
fill = "none" stroke = "black"/>
</g>
<g>
<polygon points = ""
fill = "none" stroke = "black"/>
</g>
<g>
<polygon points = ""
fill = "none" stroke = "black"/>
</g>
<g>
<polygon points = ""
fill = "none" stroke = "black"/>
</g>
<g>
<polygon points = ""
fill = "none" stroke = "black"/>
</g>
<g>
<polygon points = ""
fill = "none" stroke = "black"/>
</g>
<g>
<polygon points = ""
fill = "none" stroke = "black"/>
</g>
<g>
<polygon points = ""
fill = "none" stroke = "black"/>
</g>
<g>
<polygon points = ""
fill = "none" stroke = "black"/>
</g>
<g>
<polygon points = ""
fill = "none" stroke = "black"/>
</g>
<g>
<polygon points = ""
fill = "none" stroke = "black"/>
</g>
<g>
<polygon points = ""
fill = "none" stroke = "black"/>
</g>
<g>
<polygon points = ""
fill = "none" stroke = "black"/>
</g>
<g>
<polygon points = "223.079, 424.469 296.263, 414.866 429.877, 407.430 603.081, 557.862 432.650, 872.143 421.609, 859.930 242.330, 637.446 "
fill = "none" stroke = "black"/>
</g>
<g>
<polygon points = ""
fill = "none" stroke = "black"/>
</g>
<g>
<polygon points = ""
fill = "none" stroke = "black"/>
</g>
<g>
<polygon points = ""
fill = "none" stroke = "black"/>
</g>
<g>
<polygon points = "432.650, 872.143 603.081, 557.862 936.135, 505.337 1000.000, 522.859 1000.000, 775.720 813.536, 1000.000 488.730, 1000.000 "
fill = "none" stroke = "black"/>
</g>
<g>
<polygon points = ""
fill = "none" stroke = "black"/>
</g>
<g>
<circle cx = "850.324" cy = "83.887" r = "3" />
<circle cx = "980.084" cy = "564.875" r = "3" />
<circle cx = "95.667" cy = "882.874" r = "3" />
<circle cx = "666.114" cy = "739.492" r = "3" />
<circle cx = "615.331" cy = "420.127" r = "3" />
<circle cx = "146.446" cy = "851.071" r = "3" />
<circle cx = "442.728" cy = "63.701" r = "3" />
<circle cx = "449.274" cy = "271.535" r = "3" />
<circle cx = "803.668" cy = "186.568" r = "3" />
<circle cx = "141.314" cy = "880.154" r = "3" />
<circle cx = "639.224" cy = "651.518" r = "3" />
<circle cx = "745.239" cy = "627.001" r = "3" />
<circle cx = "741.127" cy = "332.967" r = "3" />
<circle cx = "653.987" cy = "91.957" r = "3" />
<circle cx = "726.526" cy = "122.941" r = "3" />
<circle cx = "930.454" cy = "282.800" r = "3" />
<circle cx = "959.302" cy = "674.437" r = "3" />
<circle cx = "488.625" cy = "573.957" r = "3" />
<circle cx = "654.970" cy = "774.605" r = "3" />
<circle cx = "45.694" cy = "19.982" r = "3" />
<circle cx = "736.522" cy = "485.055" r = "3" />
<circle cx = "530.959" cy = "809.507" r = "3" />
<circle cx = "475.541" cy = "73.719" r = "3" />
<circle cx = "943.811" cy = "905.916" r = "3" />
<circle cx = "955.937" cy = "400.811" r = "3" />
<circle cx = "100.162" cy = "174.212" r = "3" />
<circle cx = "485.636" cy = "964.861" r = "3" />
<circle cx = "19.191" cy = "161.875" r = "3" />
<circle cx = "398.034" cy = "953.005" r = "3" />
<circle cx = "214.070" cy = "700.205" r = "3" />
<circle cx = "778.584" cy = "649.135" r = "3" />
<circle cx = "494.682" cy = "274.620" r = "3" />
<circle cx = "116.285" cy = "208.136" r = "3" />
<circle cx = "63.695" cy = "809.537" r = "3" />
<circle cx = "159.882" cy = "635.078" r = "3" />
<circle cx = "36.428" cy = "240.078" r = "3" />
<circle cx = "281.818" cy = "54.308" r = "3" />
<circle cx = "832.683" cy = "425.003" r = "3" />
<circle cx = "965.038" cy = "587.074" r = "3" />
<circle cx = "18.334" cy = "441.042" r = "3" />
<circle cx = "557.283" cy = "60.223" r = "3" />
<circle cx = "473.510" cy = "306.187" r = "3" />
<circle cx = "81.466" cy = "603.470" r = "3" />
<circle cx = "356.570" cy = "507.688" r = "3" />
<circle cx = "983.891" cy = "931.433" r = "3" />
<circle cx = "943.928" cy = "575.377" r = "3" />
<circle cx = "731.196" cy = "382.800" r = "3" />
<circle cx = "721.087" cy = "574.029" r = "3" />
<circle cx = "402.005" cy = "37.430" r = "3" />
<circle cx = "315.315" cy = "959.567" r = "3" />
<circle cx = "497.846" cy = "909.676" r = "3" />
<circle cx = "445.055" cy = "526.553" r = "3" />
<circle cx = "181.979" cy = "653.252" r = "3" />
<circle cx = "780.445" cy = "76.895" r = "3" />
<circle cx = "841.882" cy = "63.183" r = "3" />
<circle cx = "215.144" cy = "547.630" r = "3" />
<circle cx = "119.230" cy = "844.967" r = "3" />
<circle cx = "528.159" cy = "97.652" r = "3" />
<circle cx = "804.549" cy = "264.504" r = "3" />
<circle cx = "447.990" cy = "773.223" r = "3" />
<circle cx = "243.809" cy = "908.399" r = "3" />
<circle cx = "395.675" cy = "610.538" r = "3" />
<circle cx = "994.060" cy = "929.144" r = "3" />
<circle cx = "639.009" cy = "557.990" r = "3" />
<circle cx = "260.345" cy = "104.335" r = "3" />
<circle cx = "154.635" cy = "317.200" r = "3" />
<circle cx = "587.941" cy = "575.042" r = "3" />
<circle cx = "967.811" cy = "457.846" r = "3" />
<circle cx = "143.593" cy = "663.498" r = "3" />
<circle cx = "295.329" cy = "164.516" r = "3" />
<circle cx = "20.162" cy = "205.600" r = "3" />
<circle cx = "9.704" cy = "438.269" r = "3" />
<circle cx = "252.169" cy = "432.119" r = "3" />
<circle cx = "604.410" cy = "473.293" r = "3" />
<circle cx = "798.154" cy = "663.389" r = "3" />
<circle cx = "312.965" cy = "460.017" r = "3" />
<circle cx = "820.452" cy = "919.805" r = "3" />
<circle cx = "540.795" cy = "233.099" r = "3" />
<circle cx = "713.510" cy = "576.527" r = "3" />
<circle cx = "457.384" cy = "634.723" r = "3" />
<circle cx = "141.432" cy = "677.470" r = "3" />
<circle cx = "982.335" cy = "116.519" r = "3" />
<circle cx = "73.756" cy = "164.464" r = "3" />
<circle cx = "669.693" cy = "796.666" r = "3" />
<circle cx = "713.710" cy = "831.224" r = "3" />
<circle cx = "980.708" cy = "67.949" r = "3" />
<circle cx = "656.782" cy = "102.345" r = "3" />
<circle cx = "251.617" cy = "609.327" r = "3" />
<circle cx = "838.935" cy = "428.703" r = "3" />
<circle cx = "893.589" cy = "991.388" r = "3" />
<circle cx = "604.827" cy = "242.235" r = "3" />
<circle cx = "105.974" cy = "540.446" r = "3" />
<circle cx = "408.182" cy = "933.642" r = "3" />
<circle cx = "86.578" cy = "666.159" r = "3" />
<circle cx = "488.009" cy = "566.722" r = "3" />
<circle cx = "564.391" cy = "157.079" r = "3" />
<circle cx = "260.413" cy = "808.837" r = "3" />
<circle cx = "721.176" cy = "565.062" r = "3" />
<circle cx = "652.519" cy = "655.934" r = "3" />
<circle cx = "626.393" cy = "61.979" r = "3" />
</g>
</svg>
