<svg xmlns = "http://www.w3.org/2000/svg" width = "1000" height = "1000">
<g>
<polygon points = ""
fill = "none" stroke = "black"/>
</g>
<g>
<polygon points = "929.263, 0.000 1000.000, 0.000 1000.000, 89.944 "
fill = "none" stroke = "black"/>
</g>
<g>
<polygon points = "354.903, 455.058 315.318, 354.138 356.134, 318.041 439.330, 292.883 477.489, 302.229 500.930, 436.031 486.796, 449.107 455.558, 470.137 "
fill = "none" stroke = "black"/>
</g>
<g>
<polygon points = "92.316, 748.273 179.516, 781.051 195.372, 809.444 201.955, 832.121 186.627, 921.086 160.694, 1000.000 21.410, 1000.000 0.000, 931.917 0.000, 774.865 "
fill = "none" stroke = "black"/>
</g>
<g>
<polygon points = "921.394, 373.221 910.825, 327.014 1000.000, 232.249 1000.000, 254.142 "
fill = "none" stroke = "black"/>
</g>
<g>
<polygon points = ""
fill = "none" stroke = "black"/>
</g>
<g>
<polygon points = "558.393, 395.102 645.382, 414.501 653.505, 439.713 665.374, 485.416 652.211, 509.986 552.294, 417.139 "
fill = "none" stroke = "black"/>
</g>
<g>
<polygon points = "854.159, 863.099 851.873, 796.794 914.215, 784.218 958.393, 788.914 "
fill = "none" stroke = "black"/>
</g>
<g>
<polygon points = "209.415, 178.395 176.210, 215.339 92.277, 189.486 35.971, 147.024 118.052, 52.330 203.019, 8.671 212.235, 34.268 "
fill = "none" stroke = "black"/>
</g>
<g>
<polygon points = "466.875, 165.588 351.542, 119.312 350.831, 116.119 425.739, 0.000 505.352, 0.000 502.733, 48.136 "
fill = "none" stroke = "black"/>
</g>
<g>
<polygon points = "280.898, 608.814 253.688, 571.494 356.511, 479.066 411.813, 540.195 412.868, 545.295 385.150, 574.441 "
fill = "none" stroke = "black"/>
</g>
<g>
<polygon points = "772.894, 109.435 669.821, 104.624 667.621, 0.000 755.307, 0.000 "
fill = "none" stroke = "black"/>
</g>
<g>
<polygon points = "895.459, 178.492 872.121, 201.248 799.523, 202.069 764.034, 180.479 792.081, 146.474 "
fill = "none" stroke = "black"/>
</g>
<g>
<polygon points = "834.487, 919.677 775.906, 872.766 777.856, 854.266 824.323, 780.964 851.873, 796.794 854.159, 863.099 "
fill = "none" stroke = "black"/>
</g>
<g>
<polygon points = "118.052, 52.330 35.971, 147.024 0.000, 130.128 0.000, 21.254 "
fill = "none" stroke = "black"/>
</g>
<g>
<polygon points = "553.741, 676.372 691.799, 583.793 719.015, 599.701 720.250, 671.931 660.477, 690.763 552.983, 704.514 553.257, 680.242 "
fill = "none" stroke = "black"/>
</g>
<g>
<polygon points = "664.019, 213.928 670.032, 205.905 764.034, 180.479 799.523, 202.069 781.930, 278.574 773.199, 278.319 705.513, 260.096 "
fill = "none" stroke = "black"/>
</g>
<g>
<polygon points = "264.905, 310.541 356.134, 318.041 315.318, 354.138 "
fill = "none" stroke = "black"/>
</g>
<g>
<polygon points = "777.301, 375.189 658.751, 351.564 645.454, 298.133 705.513, 260.096 773.199, 278.319 "
fill = "none" stroke = "black"/>
</g>
<g>
<polygon points = "917.880, 413.735 882.301, 451.466 854.509, 425.831 839.883, 314.147 840.604, 313.322 910.825, 327.014 921.394, 373.221 "
fill = "none" stroke = "black"/>
</g>
<g>
<polygon points = "910.825, 327.014 840.604, 313.322 872.121, 201.248 895.459, 178.492 936.712, 166.647 1000.000, 185.296 1000.000, 232.249 "
fill = "none" stroke = "black"/>
</g>
<g>
<polygon points = "792.081, 146.474 764.034, 180.479 670.032, 205.905 631.417, 135.414 669.821, 104.624 772.894, 109.435 "
fill = "none" stroke = "black"/>
</g>
<g>
<polygon points = "624.212, 131.329 563.227, 190.820 550.852, 191.325 509.705, 172.771 502.733, 48.136 505.352, 0.000 582.596, 0.000 632.382, 38.123 "
fill = "none" stroke = "black"/>
</g>
<g>
<polygon points = "622.950, 267.804 624.860, 235.879 664.019, 213.928 705.513, 260.096 645.454, 298.133 "
fill = "none" stroke = "black"/>
</g>
<g>
<polygon points = "958.393, 788.914 914.215, 784.218 929.885, 683.022 950.077, 641.884 1000.000, 645.162 1000.000, 783.236 "
fill = "none" stroke = "black"/>
</g>
<g>
<polygon points = "528.989, 612.380 528.766, 612.643 479.081, 586.967 412.868, 545.295 411.813, 540.195 455.558, 470.137 486.796, 449.107 "
fill = "none" stroke = "black"/>
</g>
<g>
<polygon points = "543.820, 721.230 417.408, 740.076 325.925, 687.873 385.150, 574.441 412.868, 545.295 479.081, 586.967 553.257, 680.242 552.983, 704.514 "
fill = "none" stroke = "black"/>
</g>
<g>
<polygon points = "601.793, 798.000 568.597, 802.731 539.260, 783.164 538.544, 782.330 543.820, 721.230 552.983, 704.514 660.477, 690.763 "
fill = "none" stroke = "black"/>
</g>
<g>
<polygon points = "837.454, 952.603 750.332, 884.454 775.906, 872.766 834.487, 919.677 "
fill = "none" stroke = "black"/>
</g>
<g>
<polygon points = "992.268, 451.316 917.880, 413.735 921.394, 373.221 1000.000, 254.142 1000.000, 450.977 "
fill = "none" stroke = "black"/>
</g>
<g>
<polygon points = "690.877, 482.377 724.715, 598.240 719.015, 599.701 691.799, 583.793 653.236, 520.120 652.211, 509.986 665.374, 485.416 "
fill = "none" stroke = "black"/>
</g>
<g>
<polygon points = "247.041, 569.069 99.210, 455.289 83.347, 416.297 130.132, 355.747 160.925, 326.926 205.225, 304.363 247.307, 301.190 264.905, 310.541 315.318, 354.138 354.903, 455.058 356.511, 479.066 253.688, 571.494 "
fill = "none" stroke = "black"/>
</g>
<g>
<polygon points = ""
fill = "none" stroke = "black"/>
</g>
<g>
<polygon points = "476.521, 172.352 466.875, 165.588 502.733, 48.136 509.705, 172.771 "
fill = "none" stroke = "black"/>
</g>
<g>
<polygon points = "202.914, 0.000 203.019, 8.671 118.052, 52.330 0.000, 21.254 0.000, 0.000 "
fill = "none" stroke = "black"/>
</g>
<g>
<polygon points = ""
fill = "none" stroke = "black"/>
</g>
<g>
<polygon points = "898.350, 474.988 884.238, 456.216 882.301, 451.466 917.880, 413.735 992.268, 451.316 "
fill = "none" stroke = "black"/>
</g>
<g>
<polygon points = "21.410, 1000.000 0.000, 1000.000 0.000, 931.917 "
fill = "none" stroke = "black"/>
</g>
<g>
<polygon points = "814.200, 410.586 809.197, 393.287 836.918, 314.840 839.883, 314.147 854.509, 425.831 "
fill = "none" stroke = "black"/>
</g>
<g>
<polygon points = "427.394, 903.072 538.309, 927.612 523.208, 1000.000 414.275, 1000.000 "
fill = "none" stroke = "black"/>
</g>
<g>
<polygon points = "538.309, 927.612 563.234, 905.103 624.158, 914.219 623.599, 1000.000 523.208, 1000.000 "
fill = "none" stroke = "black"/>
</g>
<g>
<polygon points = "884.238, 456.216 898.350, 474.988 885.653, 526.128 870.987, 545.180 854.646, 551.332 "
fill = "none" stroke = "black"/>
</g>
<g>
<polygon points = "356.196, 890.395 366.245, 882.765 424.744, 896.967 427.394, 903.072 414.275, 1000.000 368.747, 1000.000 "
fill = "none" stroke = "black"/>
</g>
<g>
<polygon points = "426.396, 768.521 373.137, 839.455 293.183, 737.258 293.652, 703.684 305.602, 688.735 325.925, 687.873 417.408, 740.076 "
fill = "none" stroke = "black"/>
</g>
<g>
<polygon points = "293.183, 737.258 373.137, 839.455 366.245, 882.765 356.196, 890.395 310.841, 892.328 270.744, 877.546 201.955, 832.121 195.372, 809.444 "
fill = "none" stroke = "black"/>
</g>
<g>
<polygon points = "724.715, 598.240 782.706, 599.281 788.486, 718.385 720.250, 671.931 719.015, 599.701 "
fill = "none" stroke = "black"/>
</g>
<g>
<polygon points = "653.236, 520.120 528.989, 612.380 486.796, 449.107 500.930, 436.031 552.294, 417.139 652.211, 509.986 "
fill = "none" stroke = "black"/>
</g>
<g>
<polygon points = "703.905, 473.229 690.877, 482.377 665.374, 485.416 653.505, 439.713 "
fill = "none" stroke = "black"/>
</g>
<g>
<polygon points = "92.277, 189.486 176.210, 215.339 205.225, 304.363 160.925, 326.926 "
fill = "none" stroke = "black"/>
</g>
<g>
<polygon points = "186.627, 921.086 270.744, 877.546 310.841, 892.328 249.041, 1000.000 160.694, 1000.000 "
fill = "none" stroke = "black"/>
</g>
<g>
<polygon points = ""
fill = "none" stroke = "black"/>
</g>
<g>
<polygon points = "83.320, 707.234 78.450, 695.324 136.641, 550.960 197.401, 568.528 "
fill = "none" stroke = "black"/>
</g>
<g>
<polygon points = "310.841, 892.328 356.196, 890.395 368.747, 1000.000 249.041, 1000.000 "
fill = "none" stroke = "black"/>
</g>
<g>
<polygon points = "836.918, 314.840 809.197, 393.287 777.301, 375.189 773.199, 278.319 781.930, 278.574 "
fill = "none" stroke = "black"/>
</g>
<g>
<polygon points = "212.235, 34.268 203.019, 8.671 202.914, 0.000 325.218, 0.000 337.585, 88.074 "
fill = "none" stroke = "black"/>
</g>
<g>
<polygon points = "563.227, 190.820 624.212, 131.329 631.417, 135.414 670.032, 205.905 664.019, 213.928 624.860, 235.879 "
fill = "none" stroke = "black"/>
</g>
<g>
<polygon points = "627.188, 910.101 624.158, 914.219 563.234, 905.103 539.260, 783.164 568.597, 802.731 "
fill = "none" stroke = "black"/>
</g>
<g>
<polygon points = "950.077, 641.884 870.987, 545.180 885.653, 526.128 1000.000, 568.739 1000.000, 645.162 "
fill = "none" stroke = "black"/>
</g>
<g>
<polygon points = "624.158, 914.219 627.188, 910.101 750.332, 884.454 837.454, 952.603 845.735, 1000.000 623.599, 1000.000 "
fill = "none" stroke = "black"/>
</g>
<g>
<polygon points = "550.852, 191.325 563.227, 190.820 624.860, 235.879 622.950, 267.804 547.745, 337.303 492.095, 300.348 "
fill = "none" stroke = "black"/>
</g>
<g>
<polygon points = "632.382, 38.123 582.596, 0.000 638.501, 0.000 "
fill = "none" stroke = "black"/>
</g>
<g>
<polygon points = "885.653, 526.128 898.350, 474.988 992.268, 451.316 1000.000, 450.977 1000.000, 568.739 "
fill = "none" stroke = "black"/>
</g>
<g>
<polygon points = "669.821, 104.624 631.417, 135.414 624.212, 131.329 632.382, 38.123 638.501, 0.000 667.621, 0.000 "
fill = "none" stroke = "black"/>
</g>
<g>
<polygon points = "98.857, 471.860 136.641, 550.960 78.450, 695.324 0.000, 653.895 0.000, 541.487 "
fill = "none" stroke = "black"/>
</g>
<g>
<polygon points = "950.077, 641.884 929.885, 683.022 790.936, 721.953 788.486, 718.385 782.706, 599.281 854.646, 551.332 870.987, 545.180 "
fill = "none" stroke = "black"/>
</g>
<g>
<polygon points = "492.095, 300.348 547.745, 337.303 558.393, 395.102 552.294, 417.139 500.930, 436.031 477.489, 302.229 "
fill = "none" stroke = "black"/>
</g>
<g>
<polygon points = ""
fill = "none" stroke = "black"/>
</g>
<g>
<polygon points = ""
fill = "none" stroke = "black"/>
</g>
<g>
<polygon points = "523.388, 787.845 424.744, 896.967 366.245, 882.765 373.137, 839.455 426.396, 768.521 "
fill = "none" stroke = "black"/>
</g>
<g>
<polygon points = "809.197, 393.287 814.200, 410.586 703.905, 473.229 653.505, 439.713 645.382, 414.501 658.751, 351.564 777.301, 375.189 "
fill = "none" stroke = "black"/>
</g>
<g>
<polygon points = "130.132, 355.747 83.347, 416.297 0.000, 429.152 0.000, 208.041 "
fill = "none" stroke = "black"/>
</g>
<g>
<polygon points = "411.813, 540.195 356.511, 479.066 354.903, 455.058 455.558, 470.137 "
fill = "none" stroke = "black"/>
</g>
<g>
<polygon points = "350.831, 116.119 337.585, 88.074 325.218, 0.000 425.739, 0.000 "
fill = "none" stroke = "black"/>
</g>
<g>
<polygon points = "78.450, 695.324 83.320, 707.234 92.316, 748.273 0.000, 774.865 0.000, 653.895 "
fill = "none" stroke = "black"/>
</g>
<g>
<polygon points = "35.971, 147.024 92.277, 189.486 160.925, 326.926 130.132, 355.747 0.000, 208.041 0.000, 130.128 "
fill = "none" stroke = "black"/>
</g>
<g>
<polygon points = "563.234, 905.103 538.309, 927.612 427.394, 903.072 424.744, 896.967 523.388, 787.845 538.544, 782.330 539.260, 783.164 "
fill = "none" stroke = "black"/>
</g>
<g>
<polygon points = "98.857, 471.860 99.210, 455.289 247.041, 569.069 197.401, 568.528 136.641, 550.960 "
fill = "none" stroke = "black"/>
</g>
<g>
<polygon points = "457.709, 208.943 476.521, 172.352 509.705, 172.771 550.852, 191.325 492.095, 300.348 477.489, 302.229 439.330, 292.883 "
fill = "none" stroke = "black"/>
</g>
<g>
<polygon points = "83.320, 707.234 197.401, 568.528 247.041, 569.069 253.688, 571.494 280.898, 608.814 305.602, 688.735 293.652, 703.684 179.516, 781.051 92.316, 748.273 "
fill = "none" stroke = "black"/>
</g>
<g>
<polygon points = "247.307, 301.190 274.958, 210.851 320.360, 163.017 457.709, 208.943 439.330, 292.883 356.134, 318.041 264.905, 310.541 "
fill = "none" stroke = "black"/>
</g>
<g>
<polygon points = "936.712, 166.647 1000.000, 137.979 1000.000, 185.296 "
fill = "none" stroke = "black"/>
</g>
<g>
<polygon points = "936.712, 166.647 895.459, 178.492 792.081, 146.474 772.894, 109.435 755.307, 0.000 929.263, 0.000 1000.000, 89.944 1000.000, 137.979 "
fill = "none" stroke = "black"/>
</g>
<g>
<polygon points = "293.652, 703.684 293.183, 737.258 195.372, 809.444 179.516, 781.051 "
fill = "none" stroke = "black"/>
</g>
<g>
<polygon points = "479.081, 586.967 528.766, 612.643 553.741, 676.372 553.257, 680.242 "
fill = "none" stroke = "black"/>
</g>
<g>
<polygon points = ""
fill = "none" stroke = "black"/>
</g>
<g>
<polygon points = "884.238, 456.216 854.646, 551.332 782.706, 599.281 724.715, 598.240 690.877, 482.377 703.905, 473.229 814.200, 410.586 854.509, 425.831 882.301, 451.466 "
fill = "none" stroke = "black"/>
</g>
<g>
<polygon points = "790.936, 721.953 929.885, 683.022 914.215, 784.218 851.873, 796.794 824.323, 780.964 "
fill = "none" stroke = "black"/>
</g>
<g>
<polygon points = "840.604, 313.322 839.883, 314.147 836.918, 314.840 781.930, 278.574 799.523, 202.069 872.121, 201.248 "
fill = "none" stroke = "black"/>
</g>
<g>
<polygon points = "83.347, 416.297 99.210, 455.289 98.857, 471.860 0.000, 541.487 0.000, 429.152 "
fill = "none" stroke = "black"/>
</g>
<g>
<polygon points = "274.958, 210.851 247.307, 301.190 205.225, 304.363 176.210, 215.339 209.415, 178.395 "
fill = "none" stroke = "black"/>
</g>
<g>
<polygon points = "186.627, 921.086 201.955, 832.121 270.744, 877.546 "
fill = "none" stroke = "black"/>
</g>
<g>
<polygon points = "305.602, 688.735 280.898, 608.814 385.150, 574.441 325.925, 687.873 "
fill = "none" stroke = "black"/>
</g>
<g>
<polygon points = "320.360, 163.017 351.542, 119.312 466.875, 165.588 476.521, 172.352 457.709, 208.943 "
fill = "none" stroke = "black"/>
</g>
<g>
<polygon points = "837.454, 952.603 834.487, 919.677 854.159, 863.099 958.393, 788.914 1000.000, 783.236 1000.000, 1000.000 845.735, 1000.000 "
fill = "none" stroke = "black"/>
</g>
<g>
<polygon points = "547.745, 337.303 622.950, 267.804 645.454, 298.133 658.751, 351.564 645.382, 414.501 558.393, 395.102 "
fill = "none" stroke = "black"/>
</g>
<g>
<polygon points = "523.388, 787.845 426.396, 768.521 417.408, 740.076 543.820, 721.230 538.544, 782.330 "
fill = "none" stroke = "black"/>
</g>
<g>
<polygon points = "320.360, 163.017 274.958, 210.851 209.415, 178.395 212.235, 34.268 337.585, 88.074 350.831, 116.119 351.542, 119.312 "
fill = "none" stroke = "black"/>
</g>
<g>
<polygon points = "627.188, 910.101 568.597, 802.731 601.793, 798.000 777.856, 854.266 775.906, 872.766 750.332, 884.454 "
fill = "none" stroke = "black"/>
</g>
<g>
<polygon points = "601.793, 798.000 660.477, 690.763 720.250, 671.931 788.486, 718.385 790.936, 721.953 824.323, 780.964 777.856, 854.266 "
fill = "none" stroke = "black"/>
</g>
<g>
<polygon points = "653.236, 520.120 691.799, 583.793 553.741, 676.372 528.766, 612.643 528.989, 612.380 "
fill = "none" stroke = "black"/>
</g>
<g>
<circle cx = "850.324" cy = "83.887" r = "3" />
<circle cx = "896.898" cy = "19.916" r = "3" />
<circle cx = "435.125" cy = "396.101" r = "3" />
<circle cx = "95.667" cy = "882.874" r = "3" />
<circle cx = "950.845" cy = "333.886" r = "3" />
<circle cx = "260.508" cy = "470.013" r = "3" />
<circle cx = "615.331" cy = "420.127" r = "3" />
<circle cx = "940.261" cy = "853.554" r = "3" />
<circle cx = "148.929" cy = "102.155" r = "3" />
<circle cx = "442.728" cy = "63.701" r = "3" />
<circle cx = "322.595" cy = "550.726" r = "3" />
<circle cx = "728.465" cy = "81.410" r = "3" />
<circle cx = "803.668" cy = "186.568" r = "3" />
<circle cx = "791.415" cy = "858.686" r = "3" />
<circle cx = "119.846" cy = "76.945" r = "3" />
<circle cx = "639.224" cy = "651.518" r = "3" />
<circle cx = "762.182" cy = "254.761" r = "3" />
<circle cx = "372.999" cy = "325.852" r = "3" />
<circle cx = "741.127" cy = "332.967" r = "3" />
<circle cx = "897.825" cy = "346.013" r = "3" />
<circle cx = "908.043" cy = "293.609" r = "3" />
<circle cx = "726.526" cy = "122.941" r = "3" />
<circle cx = "550.144" cy = "69.546" r = "3" />
<circle cx = "717.200" cy = "295.188" r = "3" />
<circle cx = "959.302" cy = "674.437" r = "3" />
<circle cx = "512.728" cy = "511.375" r = "3" />
<circle cx = "426.043" cy = "649.109" r = "3" />
<circle cx = "654.970" cy = "774.605" r = "3" />
<circle cx = "714.842" cy = "954.306" r = "3" />
<circle cx = "980.018" cy = "353.143" r = "3" />
<circle cx = "736.522" cy = "485.055" r = "3" />
<circle cx = "249.169" cy = "469.041" r = "3" />
<circle cx = "190.493" cy = "674.488" r = "3" />
<circle cx = "475.541" cy = "73.719" r = "3" />
<circle cx = "125.310" cy = "56.189" r = "3" />
<circle cx = "94.084" cy = "899.471" r = "3" />
<circle cx = "955.937" cy = "400.811" r = "3" />
<circle cx = "41.725" cy = "899.838" r = "3" />
<circle cx = "825.788" cy = "355.447" r = "3" />
<circle cx = "485.636" cy = "964.861" r = "3" />
<circle cx = "562.084" cy = "980.809" r = "3" />
<circle cx = "838.125" cy = "489.374" r = "3" />
<circle cx = "398.034" cy = "953.005" r = "3" />
<circle cx = "347.969" cy = "785.930" r = "3" />
<circle cx = "299.795" cy = "823.619" r = "3" />
<circle cx = "778.584" cy = "649.135" r = "3" />
<circle cx = "536.168" cy = "505.318" r = "3" />
<circle cx = "725.380" cy = "391.546" r = "3" />
<circle cx = "116.285" cy = "208.136" r = "3" />
<circle cx = "258.254" cy = "936.305" r = "3" />
<circle cx = "190.463" cy = "454.437" r = "3" />
<circle cx = "159.882" cy = "635.078" r = "3" />
<circle cx = "305.760" cy = "963.572" r = "3" />
<circle cx = "759.922" cy = "332.172" r = "3" />
<circle cx = "281.818" cy = "54.308" r = "3" />
<circle cx = "645.520" cy = "167.317" r = "3" />
<circle cx = "574.997" cy = "894.508" r = "3" />
<circle cx = "965.038" cy = "587.074" r = "3" />
<circle cx = "693.441" cy = "981.666" r = "3" />
<circle cx = "558.958" cy = "285.720" r = "3" />
<circle cx = "557.283" cy = "60.223" r = "3" />
<circle cx = "987.614" cy = "526.490" r = "3" />
<circle cx = "693.813" cy = "82.139" r = "3" />
<circle cx = "81.466" cy = "603.470" r = "3" />
<circle cx = "896.132" cy = "643.430" r = "3" />
<circle cx = "492.312" cy = "386.082" r = "3" />
<circle cx = "983.891" cy = "931.433" r = "3" />
<circle cx = "822.618" cy = "56.072" r = "3" />
<circle cx = "424.623" cy = "843.485" r = "3" />
<circle cx = "731.196" cy = "382.800" r = "3" />
<circle cx = "3.100" cy = "278.913" r = "3" />
<circle cx = "425.971" cy = "457.203" r = "3" />
<circle cx = "402.005" cy = "37.430" r = "3" />
<circle cx = "38.577" cy = "684.685" r = "3" />
<circle cx = "40.433" cy = "246.022" r = "3" />
<circle cx = "497.846" cy = "909.676" r = "3" />
<circle cx = "183.052" cy = "554.945" r = "3" />
<circle cx = "473.447" cy = "239.635" r = "3" />
<circle cx = "181.979" cy = "653.252" r = "3" />
<circle cx = "381.738" cy = "219.555" r = "3" />
<circle cx = "923.105" cy = "242.492" r = "3" />
<circle cx = "841.882" cy = "63.183" r = "3" />
<circle cx = "271.187" cy = "784.856" r = "3" />
<circle cx = "452.370" cy = "628.172" r = "3" />
<circle cx = "119.230" cy = "844.967" r = "3" />
<circle cx = "781.767" cy = "471.841" r = "3" />
<circle cx = "902.348" cy = "665.618" r = "3" />
<circle cx = "804.549" cy = "264.504" r = "3" />
<circle cx = "45.222" cy = "552.010" r = "3" />
<circle cx = "226.777" cy = "172.124" r = "3" />
<circle cx = "243.809" cy = "908.399" r = "3" />
<circle cx = "340.268" cy = "604.325" r = "3" />
<circle cx = "389.462" cy = "196.456" r = "3" />
<circle cx = "994.060" cy = "929.144" r = "3" />
<circle cx = "628.518" cy = "360.991" r = "3" />
<circle cx = "442.010" cy = "756.215" r = "3" />
<circle cx = "260.345" cy = "104.335" r = "3" />
<circle cx = "665.054" cy = "845.365" r = "3" />
<circle cx = "682.800" cy = "789.834" r = "3" />
<circle cx = "587.941" cy = "575.042" r = "3" />
</g>
</svg>
