<svg xmlns = "http://www.w3.org/2000/svg" width = "1000" height = "1000">
<g>
<polygon points = "898.698, 146.586 812.379, 107.364 817.047, 102.715 912.842, 63.652 977.247, 110.542 "
fill = "none" stroke = "black"/>
</g>
<g>
<polygon points = "977.247, 110.542 912.842, 63.652 862.782, 0.000 1000.000, 0.000 1000.000, 107.862 "
fill = "none" stroke = "black"/>
</g>
<g>
<polygon points = "400.641, 309.070 424.728, 314.970 447.733, 446.288 322.150, 427.475 307.062, 391.829 "
fill = "none" stroke = "black"/>
</g>
<g>
<polygon points = "29.544, 763.711 162.420, 846.308 154.079, 894.719 32.559, 883.132 0.000, 779.596 0.000, 772.221 "
fill = "none" stroke = "black"/>
</g>
<g>
<polygon points = "929.426, 375.180 912.167, 299.722 988.198, 218.925 1000.000, 215.342 1000.000, 268.267 "
fill = "none" stroke = "black"/>
</g>
<g>
<polygon points = "234.247, 504.238 247.841, 345.618 307.062, 391.829 322.150, 427.475 324.111, 452.802 244.770, 513.834 "
fill = "none" stroke = "black"/>
</g>
<g>
<polygon points = "507.467, 407.424 605.957, 429.388 635.610, 543.568 627.087, 559.477 610.566, 556.556 495.728, 449.843 "
fill = "none" stroke = "black"/>
</g>
<g>
<polygon points = "959.716, 853.894 852.381, 914.026 847.797, 781.057 898.346, 770.860 1000.000, 781.666 1000.000, 825.223 "
fill = "none" stroke = "black"/>
</g>
<g>
<polygon points = "190.707, 174.686 153.377, 216.220 41.658, 181.809 134.900, 74.239 183.597, 49.217 192.669, 74.412 "
fill = "none" stroke = "black"/>
</g>
<g>
<polygon points = "413.434, 192.341 326.526, 157.470 428.110, 0.000 472.156, 0.000 "
fill = "none" stroke = "black"/>
</g>
<g>
<polygon points = "264.764, 583.223 246.094, 557.617 244.770, 513.834 324.111, 452.802 401.357, 538.186 "
fill = "none" stroke = "black"/>
</g>
<g>
<polygon points = "777.657, 90.256 682.829, 85.829 681.024, 0.000 753.368, 0.000 "
fill = "none" stroke = "black"/>
</g>
<g>
<polygon points = "879.786, 186.979 876.566, 190.118 785.885, 191.144 738.588, 162.371 786.998, 103.678 812.379, 107.364 898.698, 146.586 "
fill = "none" stroke = "black"/>
</g>
<g>
<polygon points = "844.295, 935.421 739.808, 851.747 745.431, 798.409 774.743, 752.167 795.324, 750.907 847.797, 781.057 852.381, 914.026 "
fill = "none" stroke = "black"/>
</g>
<g>
<polygon points = "134.900, 74.239 41.658, 181.809 37.507, 181.696 0.000, 164.080 0.000, 38.729 "
fill = "none" stroke = "black"/>
</g>
<g>
<polygon points = "561.934, 689.296 562.206, 687.122 663.326, 619.313 700.082, 640.797 701.130, 702.053 696.080, 703.644 577.598, 718.802 "
fill = "none" stroke = "black"/>
</g>
<g>
<polygon points = "647.468, 204.161 663.586, 182.658 738.588, 162.371 785.885, 191.144 766.332, 276.170 737.442, 275.327 703.124, 266.087 "
fill = "none" stroke = "black"/>
</g>
<g>
<polygon points = "219.549, 321.151 255.425, 287.026 391.309, 298.198 400.641, 309.070 307.062, 391.829 247.841, 345.618 "
fill = "none" stroke = "black"/>
</g>
<g>
<polygon points = "743.702, 423.151 618.538, 389.505 603.522, 329.167 703.124, 266.087 737.442, 275.327 "
fill = "none" stroke = "black"/>
</g>
<g>
<polygon points = "926.913, 404.142 860.672, 474.390 837.886, 300.387 849.197, 287.444 912.167, 299.722 929.426, 375.180 "
fill = "none" stroke = "black"/>
</g>
<g>
<polygon points = "988.198, 218.925 912.167, 299.722 849.197, 287.444 876.566, 190.118 879.786, 186.979 "
fill = "none" stroke = "black"/>
</g>
<g>
<polygon points = "786.998, 103.678 738.588, 162.371 663.586, 182.658 632.602, 126.099 682.829, 85.829 777.657, 90.256 "
fill = "none" stroke = "black"/>
</g>
<g>
<polygon points = "607.838, 112.058 510.153, 207.350 505.279, 207.549 494.578, 202.724 483.238, 0.000 514.793, 0.000 611.191, 73.815 "
fill = "none" stroke = "black"/>
</g>
<g>
<polygon points = "565.550, 277.993 567.278, 249.113 647.468, 204.161 703.124, 266.087 603.522, 329.167 "
fill = "none" stroke = "black"/>
</g>
<g>
<polygon points = "898.346, 770.860 911.206, 687.813 911.206, 687.813 1000.000, 693.643 1000.000, 781.666 "
fill = "none" stroke = "black"/>
</g>
<g>
<polygon points = "408.105, 542.118 460.504, 458.200 482.952, 454.542 522.104, 606.049 411.855, 549.075 "
fill = "none" stroke = "black"/>
</g>
<g>
<polygon points = "408.562, 564.554 504.039, 684.612 406.186, 699.200 353.853, 669.337 "
fill = "none" stroke = "black"/>
</g>
<g>
<polygon points = "659.287, 770.879 631.347, 774.861 575.948, 737.910 577.598, 718.802 696.080, 703.644 "
fill = "none" stroke = "black"/>
</g>
<g>
<polygon points = "683.408, 883.490 686.579, 876.074 739.808, 851.747 844.295, 935.421 849.785, 1000.000 832.355, 1000.000 "
fill = "none" stroke = "black"/>
</g>
<g>
<polygon points = "926.913, 404.142 929.426, 375.180 1000.000, 268.267 1000.000, 441.065 "
fill = "none" stroke = "black"/>
</g>
<g>
<polygon points = "704.602, 535.347 732.939, 632.374 700.082, 640.797 663.326, 619.313 627.087, 559.477 635.610, 543.568 "
fill = "none" stroke = "black"/>
</g>
<g>
<polygon points = "164.755, 450.752 196.564, 322.884 219.549, 321.151 247.841, 345.618 234.247, 504.238 "
fill = "none" stroke = "black"/>
</g>
<g>
<polygon points = "97.143, 729.695 95.379, 703.406 151.600, 659.737 273.329, 610.935 298.712, 665.118 169.194, 759.813 "
fill = "none" stroke = "black"/>
</g>
<g>
<polygon points = "427.024, 201.871 413.434, 192.341 472.156, 0.000 483.238, 0.000 494.578, 202.724 "
fill = "none" stroke = "black"/>
</g>
<g>
<polygon points = "183.006, 0.000 183.597, 49.217 134.900, 74.239 0.000, 38.729 0.000, 0.000 "
fill = "none" stroke = "black"/>
</g>
<g>
<polygon points = "32.559, 883.132 154.079, 894.719 151.778, 933.302 136.814, 1000.000 33.377, 1000.000 "
fill = "none" stroke = "black"/>
</g>
<g>
<polygon points = "883.590, 535.573 853.362, 495.363 860.672, 474.390 926.913, 404.142 1000.000, 441.065 1000.000, 506.232 "
fill = "none" stroke = "black"/>
</g>
<g>
<polygon points = "32.559, 883.132 33.377, 1000.000 0.000, 1000.000 0.000, 779.596 "
fill = "none" stroke = "black"/>
</g>
<g>
<polygon points = "837.886, 300.387 860.672, 474.390 853.362, 495.363 827.152, 497.777 782.272, 480.803 766.265, 436.277 812.161, 306.395 "
fill = "none" stroke = "black"/>
</g>
<g>
<polygon points = "444.634, 879.570 559.984, 905.091 540.186, 1000.000 428.335, 1000.000 "
fill = "none" stroke = "black"/>
</g>
<g>
<polygon points = "559.984, 905.091 584.858, 882.628 674.205, 895.996 673.527, 1000.000 540.186, 1000.000 "
fill = "none" stroke = "black"/>
</g>
<g>
<polygon points = "827.152, 497.777 853.362, 495.363 883.590, 535.573 869.020, 594.255 852.374, 615.879 795.589, 637.260 784.987, 633.309 "
fill = "none" stroke = "black"/>
</g>
<g>
<polygon points = "344.730, 863.821 367.097, 846.838 437.885, 864.023 444.634, 879.570 428.335, 1000.000 360.324, 1000.000 "
fill = "none" stroke = "black"/>
</g>
<g>
<polygon points = "420.467, 744.396 373.430, 807.043 313.310, 730.198 314.138, 671.021 353.853, 669.337 406.186, 699.200 "
fill = "none" stroke = "black"/>
</g>
<g>
<polygon points = "210.008, 806.437 313.310, 730.198 373.430, 807.043 367.097, 846.838 344.730, 863.821 305.256, 865.503 292.120, 860.661 "
fill = "none" stroke = "black"/>
</g>
<g>
<polygon points = "732.939, 632.374 784.987, 633.309 795.589, 637.260 799.561, 719.095 795.324, 750.907 774.743, 752.167 701.130, 702.053 700.082, 640.797 "
fill = "none" stroke = "black"/>
</g>
<g>
<polygon points = "533.471, 613.802 522.104, 606.049 482.952, 454.542 495.728, 449.843 610.566, 556.556 "
fill = "none" stroke = "black"/>
</g>
<g>
<polygon points = "766.265, 436.277 782.272, 480.803 704.602, 535.347 635.610, 543.568 605.957, 429.388 618.538, 389.505 743.702, 423.151 "
fill = "none" stroke = "black"/>
</g>
<g>
<polygon points = "37.507, 181.696 41.658, 181.809 153.377, 216.220 187.772, 321.753 117.963, 342.778 "
fill = "none" stroke = "black"/>
</g>
<g>
<polygon points = "151.778, 933.302 292.120, 860.661 305.256, 865.503 228.060, 1000.000 136.814, 1000.000 "
fill = "none" stroke = "black"/>
</g>
<g>
<polygon points = "62.147, 394.502 95.362, 359.047 117.963, 342.778 187.772, 321.753 196.564, 322.884 164.755, 450.752 96.558, 445.724 "
fill = "none" stroke = "black"/>
</g>
<g>
<polygon points = "68.814, 638.447 115.453, 522.740 235.683, 557.503 151.600, 659.737 95.379, 703.406 "
fill = "none" stroke = "black"/>
</g>
<g>
<polygon points = "305.256, 865.503 344.730, 863.821 360.324, 1000.000 228.060, 1000.000 "
fill = "none" stroke = "black"/>
</g>
<g>
<polygon points = "812.161, 306.395 766.265, 436.277 743.702, 423.151 737.442, 275.327 766.332, 276.170 "
fill = "none" stroke = "black"/>
</g>
<g>
<polygon points = "192.669, 74.412 183.597, 49.217 183.006, 0.000 287.623, 0.000 304.833, 122.557 "
fill = "none" stroke = "black"/>
</g>
<g>
<polygon points = "510.153, 207.350 607.838, 112.058 632.602, 126.099 663.586, 182.658 647.468, 204.161 567.278, 249.113 "
fill = "none" stroke = "black"/>
</g>
<g>
<polygon points = "674.205, 895.996 584.858, 882.628 559.514, 753.714 575.948, 737.910 631.347, 774.861 686.579, 876.074 683.408, 883.490 "
fill = "none" stroke = "black"/>
</g>
<g>
<polygon points = "911.206, 687.813 852.374, 615.879 869.020, 594.255 1000.000, 643.064 1000.000, 693.643 "
fill = "none" stroke = "black"/>
</g>
<g>
<polygon points = "674.205, 895.996 683.408, 883.490 832.355, 1000.000 673.527, 1000.000 "
fill = "none" stroke = "black"/>
</g>
<g>
<polygon points = "505.279, 207.549 510.153, 207.350 567.278, 249.113 565.550, 277.993 495.542, 342.689 449.076, 311.833 "
fill = "none" stroke = "black"/>
</g>
<g>
<polygon points = "611.191, 73.815 514.793, 0.000 623.040, 0.000 "
fill = "none" stroke = "black"/>
</g>
<g>
<polygon points = "869.020, 594.255 883.590, 535.573 1000.000, 506.232 1000.000, 643.064 "
fill = "none" stroke = "black"/>
</g>
<g>
<polygon points = "682.829, 85.829 632.602, 126.099 607.838, 112.058 611.191, 73.815 623.040, 0.000 681.024, 0.000 "
fill = "none" stroke = "black"/>
</g>
<g>
<polygon points = "95.794, 481.584 115.453, 522.740 68.814, 638.447 0.000, 602.107 0.000, 549.055 "
fill = "none" stroke = "black"/>
</g>
<g>
<polygon points = "799.561, 719.095 795.589, 637.260 852.374, 615.879 911.206, 687.813 911.206, 687.813 "
fill = "none" stroke = "black"/>
</g>
<g>
<polygon points = "449.076, 311.833 495.542, 342.689 507.467, 407.424 495.728, 449.843 482.952, 454.542 460.504, 458.200 447.733, 446.288 424.728, 314.970 "
fill = "none" stroke = "black"/>
</g>
<g>
<polygon points = "844.295, 935.421 852.381, 914.026 959.716, 853.894 992.606, 1000.000 849.785, 1000.000 "
fill = "none" stroke = "black"/>
</g>
<g>
<polygon points = "786.998, 103.678 777.657, 90.256 753.368, 0.000 854.962, 0.000 817.047, 102.715 812.379, 107.364 "
fill = "none" stroke = "black"/>
</g>
<g>
<polygon points = "526.864, 765.593 437.885, 864.023 367.097, 846.838 373.430, 807.043 420.467, 744.396 "
fill = "none" stroke = "black"/>
</g>
<g>
<polygon points = ""
fill = "none" stroke = "black"/>
</g>
<g>
<polygon points = "95.362, 359.047 62.147, 394.502 0.000, 404.087 0.000, 250.806 "
fill = "none" stroke = "black"/>
</g>
<g>
<polygon points = "460.504, 458.200 408.105, 542.118 401.357, 538.186 324.111, 452.802 322.150, 427.475 447.733, 446.288 "
fill = "none" stroke = "black"/>
</g>
<g>
<polygon points = "326.526, 157.470 321.120, 157.043 304.833, 122.557 287.623, 0.000 428.110, 0.000 "
fill = "none" stroke = "black"/>
</g>
<g>
<polygon points = "68.814, 638.447 95.379, 703.406 97.143, 729.695 29.544, 763.711 0.000, 772.221 0.000, 602.107 "
fill = "none" stroke = "black"/>
</g>
<g>
<polygon points = "37.507, 181.696 117.963, 342.778 95.362, 359.047 0.000, 250.806 0.000, 164.080 "
fill = "none" stroke = "black"/>
</g>
<g>
<polygon points = "526.864, 765.593 559.514, 753.714 584.858, 882.628 559.984, 905.091 444.634, 879.570 437.885, 864.023 "
fill = "none" stroke = "black"/>
</g>
<g>
<polygon points = "95.794, 481.584 96.558, 445.724 164.755, 450.752 234.247, 504.238 244.770, 513.834 246.094, 557.617 235.683, 557.503 115.453, 522.740 "
fill = "none" stroke = "black"/>
</g>
<g>
<polygon points = "391.309, 298.198 401.552, 251.416 427.024, 201.871 494.578, 202.724 505.279, 207.549 449.076, 311.833 424.728, 314.970 400.641, 309.070 "
fill = "none" stroke = "black"/>
</g>
<g>
<polygon points = "235.683, 557.503 246.094, 557.617 264.764, 583.223 273.329, 610.935 151.600, 659.737 "
fill = "none" stroke = "black"/>
</g>
<g>
<polygon points = "282.250, 211.524 401.552, 251.416 391.309, 298.198 255.425, 287.026 276.767, 217.301 "
fill = "none" stroke = "black"/>
</g>
<g>
<polygon points = "988.198, 218.925 879.786, 186.979 898.698, 146.586 977.247, 110.542 1000.000, 107.862 1000.000, 215.342 "
fill = "none" stroke = "black"/>
</g>
<g>
<polygon points = "854.962, 0.000 862.782, 0.000 912.842, 63.652 817.047, 102.715 "
fill = "none" stroke = "black"/>
</g>
<g>
<polygon points = "185.488, 801.003 169.194, 759.813 298.712, 665.118 314.138, 671.021 313.310, 730.198 210.008, 806.437 "
fill = "none" stroke = "black"/>
</g>
<g>
<polygon points = "411.855, 549.075 522.104, 606.049 533.471, 613.802 562.206, 687.122 561.934, 689.296 504.039, 684.612 408.562, 564.554 "
fill = "none" stroke = "black"/>
</g>
<g>
<polygon points = "97.143, 729.695 169.194, 759.813 185.488, 801.003 162.420, 846.308 29.544, 763.711 "
fill = "none" stroke = "black"/>
</g>
<g>
<polygon points = "782.272, 480.803 827.152, 497.777 784.987, 633.309 732.939, 632.374 704.602, 535.347 "
fill = "none" stroke = "black"/>
</g>
<g>
<polygon points = "799.561, 719.095 911.206, 687.813 898.346, 770.860 847.797, 781.057 795.324, 750.907 "
fill = "none" stroke = "black"/>
</g>
<g>
<polygon points = "849.197, 287.444 837.886, 300.387 812.161, 306.395 766.332, 276.170 785.885, 191.144 876.566, 190.118 "
fill = "none" stroke = "black"/>
</g>
<g>
<polygon points = "62.147, 394.502 96.558, 445.724 95.794, 481.584 0.000, 549.055 0.000, 404.087 "
fill = "none" stroke = "black"/>
</g>
<g>
<polygon points = "196.564, 322.884 187.772, 321.753 153.377, 216.220 190.707, 174.686 276.767, 217.301 255.425, 287.026 219.549, 321.151 "
fill = "none" stroke = "black"/>
</g>
<g>
<polygon points = "151.778, 933.302 154.079, 894.719 162.420, 846.308 185.488, 801.003 210.008, 806.437 292.120, 860.661 "
fill = "none" stroke = "black"/>
</g>
<g>
<polygon points = "314.138, 671.021 298.712, 665.118 273.329, 610.935 264.764, 583.223 401.357, 538.186 408.105, 542.118 411.855, 549.075 408.562, 564.554 353.853, 669.337 "
fill = "none" stroke = "black"/>
</g>
<g>
<polygon points = "401.552, 251.416 282.250, 211.524 321.120, 157.043 326.526, 157.470 413.434, 192.341 427.024, 201.871 "
fill = "none" stroke = "black"/>
</g>
<g>
<polygon points = "959.716, 853.894 1000.000, 825.223 1000.000, 1000.000 992.606, 1000.000 "
fill = "none" stroke = "black"/>
</g>
<g>
<polygon points = "495.542, 342.689 565.550, 277.993 603.522, 329.167 618.538, 389.505 605.957, 429.388 507.467, 407.424 "
fill = "none" stroke = "black"/>
</g>
<g>
<polygon points = "559.514, 753.714 526.864, 765.593 420.467, 744.396 406.186, 699.200 504.039, 684.612 561.934, 689.296 577.598, 718.802 575.948, 737.910 "
fill = "none" stroke = "black"/>
</g>
<g>
<polygon points = "282.250, 211.524 276.767, 217.301 190.707, 174.686 192.669, 74.412 304.833, 122.557 321.120, 157.043 "
fill = "none" stroke = "black"/>
</g>
<g>
<polygon points = "631.347, 774.861 659.287, 770.879 745.431, 798.409 739.808, 851.747 686.579, 876.074 "
fill = "none" stroke = "black"/>
</g>
<g>
<polygon points = "659.287, 770.879 696.080, 703.644 701.130, 702.053 774.743, 752.167 745.431, 798.409 "
fill = "none" stroke = "black"/>
</g>
<g>
<polygon points = "663.326, 619.313 562.206, 687.122 533.471, 613.802 610.566, 556.556 627.087, 559.477 "
fill = "none" stroke = "black"/>
</g>
<g>
<circle cx = "850.324" cy = "83.887" r = "3" />
<circle cx = "896.898" cy = "19.916" r = "3" />
<circle cx = "435.125" cy = "396.101" r = "3" />
<circle cx = "95.667" cy = "882.874" r = "3" />
<circle cx = "950.845" cy = "333.886" r = "3" />
<circle cx = "260.508" cy = "470.013" r = "3" />
<circle cx = "615.331" cy = "420.127" r = "3" />
<circle cx = "940.261" cy = "853.554" r = "3" />
<circle cx = "148.929" cy = "102.155" r = "3" />
<circle cx = "442.728" cy = "63.701" r = "3" />
<circle cx = "322.595" cy = "550.726" r = "3" />
<circle cx = "728.465" cy = "81.410" r = "3" />
<circle cx = "803.668" cy = "186.568" r = "3" />
<circle cx = "791.415" cy = "858.686" r = "3" />
<circle cx = "119.846" cy = "76.945" r = "3" />
<circle cx = "639.224" cy = "651.518" r = "3" />
<circle cx = "762.182" cy = "254.761" r = "3" />
<circle cx = "372.999" cy = "325.852" r = "3" />
<circle cx = "741.127" cy = "332.967" r = "3" />
<circle cx = "897.825" cy = "346.013" r = "3" />
<circle cx = "908.043" cy = "293.609" r = "3" />
<circle cx = "726.526" cy = "122.941" r = "3" />
<circle cx = "550.144" cy = "69.546" r = "3" />
<circle cx = "717.200" cy = "295.188" r = "3" />
<circle cx = "959.302" cy = "674.437" r = "3" />
<circle cx = "512.728" cy = "511.375" r = "3" />
<circle cx = "426.043" cy = "649.109" r = "3" />
<circle cx = "654.970" cy = "774.605" r = "3" />
<circle cx = "714.842" cy = "954.306" r = "3" />
<circle cx = "980.018" cy = "353.143" r = "3" />
<circle cx = "736.522" cy = "485.055" r = "3" />
<circle cx = "249.169" cy = "469.041" r = "3" />
<circle cx = "190.493" cy = "674.488" r = "3" />
<circle cx = "475.541" cy = "73.719" r = "3" />
<circle cx = "125.310" cy = "56.189" r = "3" />
<circle cx = "94.084" cy = "899.471" r = "3" />
<circle cx = "955.937" cy = "400.811" r = "3" />
<circle cx = "41.725" cy = "899.838" r = "3" />
<circle cx = "825.788" cy = "355.447" r = "3" />
<circle cx = "485.636" cy = "964.861" r = "3" />
<circle cx = "562.084" cy = "980.809" r = "3" />
<circle cx = "838.125" cy = "489.374" r = "3" />
<circle cx = "398.034" cy = "953.005" r = "3" />
<circle cx = "347.969" cy = "785.930" r = "3" />
<circle cx = "299.795" cy = "823.619" r = "3" />
<circle cx = "778.584" cy = "649.135" r = "3" />
<circle cx = "536.168" cy = "505.318" r = "3" />
<circle cx = "725.380" cy = "391.546" r = "3" />
<circle cx = "116.285" cy = "208.136" r = "3" />
<circle cx = "258.254" cy = "936.305" r = "3" />
<circle cx = "190.463" cy = "454.437" r = "3" />
<circle cx = "159.882" cy = "635.078" r = "3" />
<circle cx = "305.760" cy = "963.572" r = "3" />
<circle cx = "759.922" cy = "332.172" r = "3" />
<circle cx = "281.818" cy = "54.308" r = "3" />
<circle cx = "645.520" cy = "167.317" r = "3" />
<circle cx = "574.997" cy = "894.508" r = "3" />
<circle cx = "965.038" cy = "587.074" r = "3" />
<circle cx = "693.441" cy = "981.666" r = "3" />
<circle cx = "558.958" cy = "285.720" r = "3" />
<circle cx = "557.283" cy = "60.223" r = "3" />
<circle cx = "987.614" cy = "526.490" r = "3" />
<circle cx = "693.813" cy = "82.139" r = "3" />
<circle cx = "81.466" cy = "603.470" r = "3" />
<circle cx = "896.132" cy = "643.430" r = "3" />
<circle cx = "492.312" cy = "386.082" r = "3" />
<circle cx = "983.891" cy = "931.433" r = "3" />
<circle cx = "822.618" cy = "56.072" r = "3" />
<circle cx = "424.623" cy = "843.485" r = "3" />
<circle cx = "731.196" cy = "382.800" r = "3" />
<circle cx = "3.100" cy = "278.913" r = "3" />
<circle cx = "425.971" cy = "457.203" r = "3" />
<circle cx = "402.005" cy = "37.430" r = "3" />
<circle cx = "38.577" cy = "684.685" r = "3" />
<circle cx = "40.433" cy = "246.022" r = "3" />
<circle cx = "497.846" cy = "909.676" r = "3" />
<circle cx = "183.052" cy = "554.945" r = "3" />
<circle cx = "473.447" cy = "239.635" r = "3" />
<circle cx = "181.979" cy = "653.252" r = "3" />
<circle cx = "381.738" cy = "219.555" r = "3" />
<circle cx = "923.105" cy = "242.492" r = "3" />
<circle cx = "841.882" cy = "63.183" r = "3" />
<circle cx = "271.187" cy = "784.856" r = "3" />
<circle cx = "452.370" cy = "628.172" r = "3" />
<circle cx = "119.230" cy = "844.967" r = "3" />
<circle cx = "781.767" cy = "471.841" r = "3" />
<circle cx = "902.348" cy = "665.618" r = "3" />
<circle cx = "804.549" cy = "264.504" r = "3" />
<circle cx = "45.222" cy = "552.010" r = "3" />
<circle cx = "226.777" cy = "172.124" r = "3" />
<circle cx = "243.809" cy = "908.399" r = "3" />
<circle cx = "340.268" cy = "604.325" r = "3" />
<circle cx = "389.462" cy = "196.456" r = "3" />
<circle cx = "994.060" cy = "929.144" r = "3" />
<circle cx = "628.518" cy = "360.991" r = "3" />
<circle cx = "442.010" cy = "756.215" r = "3" />
<circle cx = "260.345" cy = "104.335" r = "3" />
<circle cx = "665.054" cy = "845.365" r = "3" />
<circle cx = "682.800" cy = "789.834" r = "3" />
<circle cx = "587.941" cy = "575.042" r = "3" />
</g>
</svg>
